<svg xmlns="http://www.w3.org/2000/svg" data-name="Layer 1" viewBox="0 0 517 516"><g data-name="strategy or planning"><path d="M489.73 277.53q-.19-19.08-.41-38.17-.4-37.74-.83-75.5-.42-38.16-.83-76.33-.32-29-.6-58v-1.25a1.67 1.67 0 0 0-1.72-1.72h-1.67c-7.16.08-14.32.19-21.48.26q-33.27.32-66.53.61-48.08.49-96.15 1-36.09.38-72.17.7l-43 .43c-.56 0-1.12 0-1.67.05a1.61 1.61 0 0 0-1.6 1.61 8.78 8.78 0 0 0 0 1.45c0 .91.11 1.81.13 2.71q.42 16.58.83 33.15.48 20.23 1 40.45.53 21.27 1.07 42.54c0 1.16.17 1.25-1.19 1.8-4.39 1.75-8.76 3.5-13.12 5.32q-8.94 3.72-17.83 7.52c-4.28 1.83-8.57 3.6-12.72 5.72a4.42 4.42 0 0 1-1.83.8c-.25-.32 0-.55.11-.77a11.56 11.56 0 0 0 .85-8.89c-.47-1.81-.77-3.67-1.25-5.48a10.74 10.74 0 0 1 .94-7.88c.47-.93.91-1.87 1.34-2.82a4.72 4.72 0 0 0-.46-4.75 9.85 9.85 0 0 0-3.7-3.29c-.79-.42-1.61-.81-2.4-1.23a5.5 5.5 0 0 1-2.67-2.81c-.31-.78-.68-1.53-1-2.29-.78-1.78-1.53-3.57-2.33-5.34a31.9 31.9 0 0 0-6.56-9.82 3.07 3.07 0 0 1-.31-.67 18.27 18.27 0 0 1 5.57 1.85 10.33 10.33 0 0 0 1.48.76 1.4 1.4 0 0 0 1.75-1.47 2.75 2.75 0 0 0-.57-1.32 32.84 32.84 0 0 1-2.41-4.14c-.46-.85-1-1.67-1.47-2.51a30.44 30.44 0 0 0-3.69-4.76c.4-.44.93-.38 1.38-.53a7.31 7.31 0 0 0 1.16-.44 1.82 1.82 0 0 0 .31-3.11 7.39 7.39 0 0 0-2.94-1.52 47.59 47.59 0 0 0-4.85-1.18 68 68 0 0 0-18.08-.6c-.62.06-1.25 0-1.87.09-.9.06-1.61-.11-1.95-1.11a2.36 2.36 0 0 0-2.47-1.55h-.84a46.52 46.52 0 0 1-6.25.15 17.19 17.19 0 0 0-6.54 1.08 29.23 29.23 0 0 0-4.69 2.3 57.49 57.49 0 0 0-9 6.77 43.4 43.4 0 0 1-7.35 5.44c-.66.38-1.29.82-2 1.21a12.12 12.12 0 0 0-4.65 5.37c-3.52 7.38-4 15.1-2.68 23a84.23 84.23 0 0 0 3.43 12.21 27.17 27.17 0 0 0 3 6.62c.49.75.48.79-.26 1.28-.35.23-.72.43-1.06.67a30.09 30.09 0 0 0-13.58 30.38 119 119 0 0 0 3.66 15.8 51.89 51.89 0 0 0 3.76 9.47c.48.92 1.42 1.75 1.38 2.74a11.2 11.2 0 0 1-1.08 3.13 1.51 1.51 0 0 1-.09.18 56.7 56.7 0 0 0-3.5 10.67c-.87 4.29-1.72 8.58-2.6 12.86s-1.82 8.83-2.75 13.25c-.77 3.67-1.51 7.35-2.35 11a98.53 98.53 0 0 1-2.62 10.72c-.86 2.49-1.35 5.08-2.11 7.6a34.12 34.12 0 0 0-.89 6.17c-.41 3.8-.76 7.61-1.15 11.41-.4 4-.85 8-1 12.06-.25 8-.29 16 0 24A61.66 61.66 0 0 0 32 364.33a97.68 97.68 0 0 1 4.57 13.17 13.63 13.63 0 0 0 2.22 4.68 2.7 2.7 0 0 1 .54 1.73 13 13 0 0 0 .32 3.52 23.16 23.16 0 0 0 7.06 11.78A64.63 64.63 0 0 0 57 406.66q3.26 1.86 6.66 3.44a67 67 0 0 0 13.59 4.56 41.63 41.63 0 0 0 7.88.72c.31 0 .7-.15.94.36l-1.46 1.39a3.07 3.07 0 0 0-1 2.62 6.42 6.42 0 0 0 .33 1.84c.36.89.68 1.81 1 2.75a8.16 8.16 0 0 1-2.28 1 53.68 53.68 0 0 0-9.2 3.84 1.83 1.83 0 0 1-1.76.06 8.45 8.45 0 0 0-6.51.23 22.21 22.21 0 0 0-10.13 8.37 20.69 20.69 0 0 0-3.22 10.42 14.71 14.71 0 0 0 2.9 9.74c1.26 1.74 2.64 3.41 4 5 2 2.31 4.12 4.52 6.13 6.82s3.82 4.59 5.75 6.87c1.26 1.48 2.54 2.95 3.84 4.39a19 19 0 0 0 3.65 3.09A22.89 22.89 0 0 0 91 487.81a207.36 207.36 0 0 1 21.86 1.2 52.75 52.75 0 0 0 11.65.19c4-.49 7.77-1.57 10.7-4.56a1.34 1.34 0 0 1 1.5-.35 32.67 32.67 0 0 0 5.13.84 29.21 29.21 0 0 0 14.47-2.13 16.94 16.94 0 0 0 5.3-3.26 6 6 0 0 0 1.89-6.4 30.82 30.82 0 0 0-2.83-6.47 8.79 8.79 0 0 0-6.28-4.38 36 36 0 0 0-6.19-.83 13.14 13.14 0 0 1-7-2.36 42 42 0 0 1-7-5.94c-3-3.16-6-6.34-9.26-9.31a3.74 3.74 0 0 1-1.25-1.48 51.13 51.13 0 0 1 6.19-2.87 1 1 0 0 1 1.14.24c.32.27.61.57.92.84 1.37 1.19 2.75 2.36 4.11 3.55a6.24 6.24 0 0 0 5.81 1.45 23.72 23.72 0 0 0 4.74-1.56 112.29 112.29 0 0 0 19.59-11.39c4.45-3.22 8.84-6.51 13.23-9.8a102.09 102.09 0 0 0 16.26-14.9c1.77-2.06 3.62-4 5.42-6.06a9 9 0 0 0 1.68-2.1 6.06 6.06 0 0 1 1.88-2.16c.53-.44 1.08-.87 1.63-1.29a35.64 35.64 0 0 0 11.11-13.82 17.32 17.32 0 0 0 1.6-11.16c-.48-2.1-1.1-4.16-1.71-6.22a22.85 22.85 0 0 0-3.12-6.32c-.78-1.14-1.66-2.23-2.48-3.35a35.22 35.22 0 0 0-14.29-11.16 53.52 53.52 0 0 0-9-3.12c.19-.42.57-.46.85-.64a10.14 10.14 0 0 0 1.21-.8 4.6 4.6 0 0 0 1.78-3.82c0-.36.06-.71.49-.79a5.5 5.5 0 0 0 4.36-3.75.6.6 0 0 1 .84-.37c1.81.56 3.24-.47 4.71-1.19a2 2 0 0 0 .88-1.8 16.7 16.7 0 0 0-.19-3.53 37.66 37.66 0 0 0-1.72-6.43 18.18 18.18 0 0 0-2.87-5.05 9 9 0 0 0-4.18-3 12.88 12.88 0 0 0-5.74-.71 25 25 0 0 0-5.27 1.18q-4.46 1.47-8.92 2.86A79.81 79.81 0 0 1 164 315.9c-1.95.33-3.95.77-6 .16 0-.3-.07-.57-.11-.84a6.51 6.51 0 0 0-2.49-4.19 7.5 7.5 0 0 0-5.19-1.79c-1.25 0-2.5.09-3.75.11a2.1 2.1 0 0 1-2-1.18 7.11 7.11 0 0 0-2.13-2.52 1.39 1.39 0 0 1-.61-1c-.14-1.24-.34-2.48-.42-3.72-.25-4.17-.48-8.33-.42-12.51.05-3.4 0-6.81 0-10.22 0-2.29 0-4.59-.14-6.88q-.28-6.45-.66-12.91c-.2-3.61-.41-7.22-.69-10.82-.31-3.81-.68-7.61-1.06-11.41-.34-3.39-.79-6.77-1.42-10.12a94.9 94.9 0 0 1-.6-3.7c-.15-1-.11-1.07.91-1.57.49-.25 1-.48 1.51-.69 2.57-1.05 5.08-2.24 7.53-3.54l11.22-6 25.4-13.41a7.5 7.5 0 0 1 2-.9 2.57 2.57 0 0 1 .28 1.68q.24 8.87.45 17.72.52 20.13 1 40.24c.21 8.34.38 16.68.58 25a10.14 10.14 0 0 0 .12 1.66 1.5 1.5 0 0 0 1.44 1.28c.62.06 1.25 0 1.88 0q13.14-.17 26.28-.31l75.08-.78 40.05-.42q30.24-.3 60.48-.59 32.64-.35 65.28-.73l28.79-.3a13 13 0 0 0 1.87-.1 1.27 1.27 0 0 0 1.18-1.26 16.67 16.67 0 0 0 .09-1.81ZM98.31 104.21a10.18 10.18 0 0 1 4.69 0 .73.73 0 0 1 .79.2 4.45 4.45 0 0 1 2.13.67c.18-.07.29 0 .34.18a1.75 1.75 0 0 1 1.29.58.31.31 0 0 1 .41.24l.43.19c.21-.05.33 0 .36.25a1.65 1.65 0 0 1 .88.58c.22 0 .32.07.33.27l.08.06a.34.34 0 0 1 .38.35.36.36 0 0 1 .37.4.35.35 0 0 1 .32.41v.08a.7.7 0 0 1 .38.62c0 .49-.24.59-.84.31l-.06-.07a.36.36 0 0 0-.07-.28.44.44 0 0 1 .07.28.42.42 0 0 1-.36-.47.44.44 0 0 1-.36-.44.44.44 0 0 1-.4-.4.4.4 0 0 1-.43-.38.41.41 0 0 1-.47-.37.76.76 0 0 1-.77-.47.75.75 0 0 1-.83-.43.8.8 0 0 1-.82-.42c-.35 0-.68 0-.86-.36a1.61 1.61 0 0 1-1.27-.46h-.17l-.14-.08a2.1 2.1 0 0 1-1.52-.37h-3.36a.76.76 0 0 1-.72-.31.31.31 0 0 1 .2-.36ZM96.41 117c.41.09.49.43.57.77.56 2.42 1.16 4.83 1.67 7.27a27.82 27.82 0 0 1 .58 7.12 38.94 38.94 0 0 1-.5 6.72 15.54 15.54 0 0 1-.52 2.22c-.09.33-.27.67-.7.61s-.45-.46-.4-.8.22-.94.32-1.42a53.08 53.08 0 0 0 .75-7 25.3 25.3 0 0 0-.49-6.19 60.71 60.71 0 0 0-1.42-6.69 14.75 14.75 0 0 1-.35-1.63c-.09-.52.19-1.05.49-.98Zm-5.18 60.64a24.75 24.75 0 0 0 3.39-3.08c2.13-2.22 3.13-5 4.24-7.81a1 1 0 0 0-.2-1c-.26-.32-.59-.6-.84-.93a13.22 13.22 0 0 1-2.94-9.31 6.29 6.29 0 0 1 3.12-4.9 3 3 0 0 1 3.53-.05 7.79 7.79 0 0 0 1.25.72 1.68 1.68 0 0 0 2.38-1 4.07 4.07 0 0 0 .3-1.2 53.31 53.31 0 0 0 .34-10.41c-.26-2.82-.85-5.62-1.34-8.43-.3-1.7-.69-3.4-1-5.1a4.75 4.75 0 0 1 0-.85 30.53 30.53 0 0 1 4.37 2.13c.74.38 1.49.74 2.24 1.1a3.47 3.47 0 0 0 1.62.33 2.22 2.22 0 0 0 2.16-1.64 4.44 4.44 0 0 0 .15-1.85 43.63 43.63 0 0 0-1.46-7.77c-.07-.24-.3-.58 0-.73a1.15 1.15 0 0 1 .79.06 16.78 16.78 0 0 1 8.37 6.88 59.25 59.25 0 0 1 5 10c.39 1 .79 1.92 1.21 2.87a7.83 7.83 0 0 0 3.61 3.9c1.05.54 2.09 1.09 3.12 1.67a6.09 6.09 0 0 1 2.46 2.47 2.12 2.12 0 0 1 .13 2c-.4.88-.77 1.79-1.23 2.64a13.54 13.54 0 0 0-1.26 9.7c.43 2 .91 3.92 1.39 5.88a9.06 9.06 0 0 1-3.29 9.83 25.76 25.76 0 0 1-8.17 4 47.83 47.83 0 0 0-6.55 2.67 24.86 24.86 0 0 0-2.65 1.64 11.7 11.7 0 0 0-4.63 6.72 21.87 21.87 0 0 0-.72 8c0 .41.09.82.16 1.48a48.52 48.52 0 0 1-9.53-.74 21.81 21.81 0 0 1-3.47-1.38 2.73 2.73 0 0 1-.92-.82c-.67-.7-1.3-1.45-2-2.15a33.35 33.35 0 0 0-10.53-8.05c-.06-.44.3-.54.58-.7a8 8 0 0 0 2.28-2.1c.65-.82 1.3-1.64 2-2.44a13.4 13.4 0 0 1 2.54-2.26Zm21.53 17.87a3.94 3.94 0 0 1 1.06 2.38.47.47 0 0 1-.47.54c-.34 0-.74.06-.85-.35a17.07 17.07 0 0 1-.33-1.77 3.62 3.62 0 0 1 .11-.66c0-.09.19-.15.3-.19a.2.2 0 0 1 .18.04Zm-25.49-30.17a11.34 11.34 0 0 0 2.18-6.19 8 8 0 0 1 .11-.82c0-.26.07-.48.39-.47s.4.2.39.47a2.08 2.08 0 0 1 0 1.26 3.13 3.13 0 0 1-.32 2.3 3.8 3.8 0 0 1-.79 2.32 38.79 38.79 0 0 1-5.51 7.54 5.43 5.43 0 0 1-.63.54.43.43 0 0 1-.56 0 .52.52 0 0 1-.11-.74c.37-.5.76-1 1.17-1.46a58.38 58.38 0 0 0 3.68-4.75Zm-4-45.82a3.49 3.49 0 0 1 1.36-1.78.4.4 0 0 1 .54.13.64.64 0 0 1 .13.37.75.75 0 0 1-.13.38 28.39 28.39 0 0 0-3.79 11.56 16.23 16.23 0 0 0 0 3.94 3.77 3.77 0 0 1 0 .82.43.43 0 0 1-.42.38.45.45 0 0 1-.48-.3 15.63 15.63 0 0 1-.3-3.49 29.4 29.4 0 0 1 3.11-12.01Zm-23.77 3.07a21.43 21.43 0 0 1 3.07-4.69 37.76 37.76 0 0 1 5.69-5.47 3.22 3.22 0 0 1 1.5-.74c.09.2.25.39.23.57 0 .46-.45.67-.78.91a33.72 33.72 0 0 0-4.9 4.5 22.85 22.85 0 0 0-6.15 14.44 37.74 37.74 0 0 0-.06 5 27.73 27.73 0 0 0 2.28 9A55.46 55.46 0 0 0 67 157.2q1.33 1.86 2.64 3.73a2.55 2.55 0 0 1 .32.74.4.4 0 0 1-.16.34.43.43 0 0 1-.38 0 1.18 1.18 0 0 1-.49-.36c-2.68-3.8-5.64-7.4-7.83-11.53a31.83 31.83 0 0 1-3.86-10.92c-.74-5.7-.31-11.31 2.28-16.61ZM75 431a51 51 0 0 1 5.1-2.34c1.8-.72 3.64-1.35 5.45-2.05a.75.75 0 0 1 1 .3c1.67 2.56 3.39 5.08 5 7.67a36.28 36.28 0 0 0 4 5.33c.28.31.64.56.68 1.06a11.82 11.82 0 0 1-3.37 2.64c-.93.46-1.75 1.12-2.63 1.67a13.77 13.77 0 0 1-3.32 1.72c-4.07 1.24-7.53.1-10.46-2.82a8.81 8.81 0 0 1-2.84-6.5c0-1.38 0-2.77-.06-4.16A2.42 2.42 0 0 1 75 431Zm57.24 53.14a14.05 14.05 0 0 1-4.72 2.12 28.73 28.73 0 0 1-8.37.81 62.64 62.64 0 0 1-7.59-.55 204.81 204.81 0 0 0-21-1.13 20.49 20.49 0 0 1-5.55-.73 18.6 18.6 0 0 1-9.85-6.29c-5.31-6.44-11-12.51-16.3-19-.79-1-1.51-2-2.32-2.95a10 10 0 0 1-2.31-6.56 18.13 18.13 0 0 1 3.13-11.05 20.18 20.18 0 0 1 9-7.18 6.8 6.8 0 0 1 3.48-.42 1.53 1.53 0 0 1 1.53 1.81c-.11 1-.08 2.09-.1 3.13v1.67c.19 5.31 3.06 8.78 7.66 11a11.53 11.53 0 0 0 10.82-.42c1.11-.58 2.15-1.29 3.21-1.94.48-.29 1-.59 1.42-.89a.9.9 0 0 1 1.29.16c.5.58 1 1.14 1.47 1.76a116.41 116.41 0 0 0 12.06 13.8 29.16 29.16 0 0 0 11.92 7 59.45 59.45 0 0 0 6 1.56c1 .21 1.89.45 2.82.74a3.37 3.37 0 0 1 2.37 2.42c.57 2.15 1.19 4.28 1.73 6.43a3.93 3.93 0 0 1-1.8 4.7Zm-1.19-30.53a51.88 51.88 0 0 0 7.21 6.61c.67.5 1.36 1 2.05 1.43a14.23 14.23 0 0 0 6.8 2.41c1.45.11 2.9.31 4.35.44a19.36 19.36 0 0 1 3.46.73 5.44 5.44 0 0 1 3.28 2.39 23.24 23.24 0 0 1 2.92 6.19 3.92 3.92 0 0 1-1.4 4.46 17.08 17.08 0 0 1-4.87 2.78 27.64 27.64 0 0 1-10.17 1.9 34.63 34.63 0 0 1-7-.84c-.88-.18-.94-.25-1-1.06-.18-3.24-1.27-6.25-2.21-9.3a5.15 5.15 0 0 0-3.1-3.17 17.37 17.37 0 0 0-3.8-1.09 44.21 44.21 0 0 1-9.13-2.8 23.45 23.45 0 0 1-7.38-5 112.83 112.83 0 0 1-12-13.6c-.52-.73-1.14-1.4-1.7-2.11-.16-.2-.35-.42-.13-.73a.86.86 0 0 1 1.09-.3 8.67 8.67 0 0 1 .82.65 19.83 19.83 0 0 0 3.07 2.14 8.54 8.54 0 0 0 4.34 1.28 14.72 14.72 0 0 0 1.88 0 40 40 0 0 0 11.71-2.72 1.66 1.66 0 0 1 2.18.36 283.2 283.2 0 0 1 8.73 8.95Zm58.51-42.44a116.76 116.76 0 0 1-14 11.74c-3.47 2.53-6.89 5.15-10.36 7.7a113 113 0 0 1-18.6 11 24.28 24.28 0 0 1-5.71 1.91 2.92 2.92 0 0 1-2.21-.3 31.89 31.89 0 0 1-5.67-4.69l4.33-1.75c4.83-1.93 9.51-4.2 14.14-6.56 6.42-3.27 12.84-6.57 19.21-9.95a195.21 195.21 0 0 0 20.24-12.34c.51-.35 1.06-.65 1.59-1s.52.05.58.38a28.28 28.28 0 0 1-3.54 3.86Zm11.76-61.83a28.83 28.83 0 0 1 6.09 5 53.35 53.35 0 0 1 5.12 6.57c2 3 2.87 6.44 3.79 9.86.19.73.32 1.49.45 2.24a13.58 13.58 0 0 1-1 7.34 32.21 32.21 0 0 1-9.44 13 227 227 0 0 1-30.76 21.37c-6.47 3.8-13.22 7.07-19.87 10.54-5.47 2.85-11 5.66-16.65 8.1-2.67 1.15-5.4 2.19-8.11 3.25a86.16 86.16 0 0 0-9.29 4.19 32.43 32.43 0 0 1-10.26 3.25 25.28 25.28 0 0 1-4.35.47 7.24 7.24 0 0 1-3.75-1.08 17.82 17.82 0 0 1-3.64-2.76 38.73 38.73 0 0 1-5.56-6.68c-1.42-2.3-3-4.52-4.45-6.79-.86-1.35-1.66-2.73-2.47-4.1a8.48 8.48 0 0 1-1-2.51 2.06 2.06 0 0 1 .83-2.4c1.3-.93 2.51-2 3.78-2.95 4.43-3.36 9.07-6.41 13.71-9.47 7.37-4.86 15-9.36 22.48-13.94 8.25-5 16.47-10.07 24.7-15.1.77-.47 1.57-.88 2.35-1.34a1.06 1.06 0 0 0 .57-1.22 1.18 1.18 0 0 0-1.36-.7 12.62 12.62 0 0 0-2.07 1c-3.77 2.22-7.53 4.45-11.27 6.72-9.15 5.53-18.32 11-27.41 16.66-5.66 3.51-11.19 7.24-16.77 10.89-1 .69-2 1.49-3 2.25a8.66 8.66 0 0 1-5.34 2 45.6 45.6 0 0 1-14.59-2 71.41 71.41 0 0 1-16.23-7.44 43.84 43.84 0 0 1-10.67-8.92 17.66 17.66 0 0 1-3.88-8.17 22.89 22.89 0 0 1-.54-2.86 16.14 16.14 0 0 1 4-12.13 41.68 41.68 0 0 1 12.88-10.07A112 112 0 0 1 72 355.67c6.65-2.41 13.32-4.76 20-7.15 2.15-.78 4.28-1.62 6.43-2.42a84 84 0 0 1 13.57-3.92c1.36-.26 2.75-.36 4.13-.53 7.94-.95 15.91-1.47 23-1.75 6.41 0 11.91.08 17.38.62a3.88 3.88 0 0 0 .83 0 8.54 8.54 0 0 1 4.44.88 9 9 0 0 0 6.89.41c1.31-.45 2.64-.83 3.95-1.3a2.4 2.4 0 0 1 1.59-.08c4.35 1.21 8.75 2.16 13.15 3.17a45.74 45.74 0 0 1 13.96 5.74Zm-24.86-10.88a14.8 14.8 0 0 1 2.53-2.07c.8-.6 1.46-1.46 2.63-1.58.62 1.49.52 3.17 1.42 4.52.08.78-.38.69-.87.55a45.19 45.19 0 0 1-5-1.09 2.88 2.88 0 0 1-.71-.33Zm-20.2-8.71a21.77 21.77 0 0 1 .48-4.34c.46-2.31.89-4.62 1.36-7.07a22.33 22.33 0 0 0 7.24-.3 80.59 80.59 0 0 0 12.54-2.91c2.24-.74 4.5-1.43 6.72-2.23a21 21 0 0 1 4.05-.92 10.41 10.41 0 0 1 4.54.34 6.84 6.84 0 0 1 3.6 2.35 16.3 16.3 0 0 1 2.55 4.5 32.85 32.85 0 0 1 1.79 7.68 1.65 1.65 0 0 1-1 1.85 2.57 2.57 0 0 1-2.57.07 1 1 0 0 1-.42-.69c-.67-2.21-2-4.09-3-6.17a3.55 3.55 0 0 0-.58-.85 1 1 0 0 0-1.32-.24 1.09 1.09 0 0 0-.59 1.22 3.23 3.23 0 0 0 .35 1c.61 1.17 1.22 2.33 1.86 3.48a9 9 0 0 1 1.14 2.68 3.37 3.37 0 0 1-2.16 3.83 1.05 1.05 0 0 1-1.49-.63c-.29-.63-.52-1.29-.84-1.9a7.2 7.2 0 0 0-1-1.36 1.25 1.25 0 0 0-1.55-.05 1.17 1.17 0 0 0-.3 1.33c.1.25.28.47.39.73.44 1 .87 2 1.3 3.06a6.62 6.62 0 0 1 .37 1.82 2.75 2.75 0 0 1-2.5 2.83 2.47 2.47 0 0 1-2.62-2.15c-.13-.54-.21-1.09-.32-1.64a6.75 6.75 0 0 0-.24-1 2.56 2.56 0 0 0-3.71-1.51 11.74 11.74 0 0 0-2.26 1.48c-1.34 1-2.68 2-4 3a20.21 20.21 0 0 1-7.12 2.81 6.58 6.58 0 0 1-4.29-.42 9 9 0 0 0-2.17-.71 3.54 3.54 0 0 1-2.81-1.87 3.37 3.37 0 0 0-1.38-1.53c-1-.49-1-1.17-.63-2.05a9.71 9.71 0 0 0 .59-3.52Zm23-133.26c-9.17 5.09-18.61 9.67-27.88 14.58-3.43 1.82-6.84 3.71-10.28 5.51-1.48.77-3 1.41-4.54 2.09-.71.32-.91.19-1.11-.66l-1.71-7.08c-.61-2.58-1.69-5-2.53-7.5a3.25 3.25 0 0 0-.28-.56 1 1 0 0 0-1.2-.54 1.16 1.16 0 0 0-.75 1.14 4.55 4.55 0 0 0 .26 1c3 8.13 4.47 16.61 5.79 25.12.84 5.36 1.28 10.76 1.78 16.16.74 8 .93 16 1.43 23.93.32 5.21.26 10.43.23 15.64 0 5 .07 10 .35 15 .06 1 .24 1.92.35 2.89v1c-3.95-1.19-7.67-2.3-11.38-3.44-2.52-.78-5.11-1.32-7.68-1.88-2.93-.63-5.84-1.28-8.71-2.1-.8-.23-1.58-.54-2.36-.82-3.37-1.21-5-3.84-5.68-7.15a27.51 27.51 0 0 1-.19-7.69c.32-4.65.7-9.28.65-13.95a88.87 88.87 0 0 0-.6-8.94c-.1-1-.2-1.94-.31-2.9a3.08 3.08 0 0 0-.2-1 1 1 0 0 0-1-.53.88.88 0 0 0-.75.63 3.22 3.22 0 0 0-.14 1 21.65 21.65 0 0 0 .17 2.91 36.73 36.73 0 0 1 .39 5.82c0 3.76 0 7.52-.18 11.26-.17 2.91-.34 5.83-.52 8.74a19.5 19.5 0 0 0 .37 5.18c.93 4.57 3.5 7.77 8.06 9.24 3 .95 6 1.67 9.07 2.34a101.23 101.23 0 0 1 12.08 3.17c1.5.52 3.06.89 4.61 1.3 1.75.46 3.42 1.13 5.12 1.76a4 4 0 0 1 2.3 2 4.71 4.71 0 0 0 4.8 2.64c1.19 0 2.37-.09 3.55-.12a4.92 4.92 0 0 1 3.09 1 4.2 4.2 0 0 1 1.86 3.52 28.59 28.59 0 0 1-.91 7.43 24.56 24.56 0 0 0-.7 4.73 20.57 20.57 0 0 1-1.19 6.11c-.43 1.22-.17 1.77 1 2.29.38.17.78.3 1.14.49a.46.46 0 0 1 .2.56c-.52.23-1.06 0-1.6 0-6.95-.26-13.9-.4-20.85 0a207.89 207.89 0 0 0-21.62 2.19 7.85 7.85 0 0 1-3.28-.39c-1.68-.43-3.34-.94-5-1.5a63.52 63.52 0 0 0-9.5-2.3 53 53 0 0 1-12.67-4l-5.88-2.68a21.75 21.75 0 0 1-3.07-1.76 15.85 15.85 0 0 1-7.11-13.24c-.14-4.3 0-8.62-.1-12.93a107 107 0 0 0-1.36-14.72c-.51-3.15-.9-6.33-1.34-9.49-.48-3.44-.91-6.89-1.43-10.32a39.32 39.32 0 0 1-.22-8.74 21.9 21.9 0 0 0 .07-2.29 4.71 4.71 0 0 0-.24-1.22.82.82 0 0 0-.79-.57.91.91 0 0 0-1 .61 2.57 2.57 0 0 0-.18.81c-.12 3.75-.52 7.5-.09 11.25.37 3.31.85 6.61 1.32 9.91.49 3.51 1 7 1.51 10.52.3 2.13.6 4.27.84 6.41a148 148 0 0 1 .46 16c0 1.74-.06 3.48.07 5.21a19.43 19.43 0 0 0 3.81 10.64 17.76 17.76 0 0 0 6.17 5.2c5.59 2.8 11.22 5.53 17.34 7 1.61.4 3.24.78 4.89 1a63.18 63.18 0 0 1 10 2.66c.09.38-.2.5-.42.56-4.09 1.15-8 2.84-12 4.26-5.24 1.86-10.5 3.64-15.71 5.57-5.86 2.16-11.77 4.23-17.4 7a46.2 46.2 0 0 0-14.37 10.52 19.59 19.59 0 0 0-4.72 8 3.18 3.18 0 0 1-.42.63 6 6 0 0 1-.76-1.88 66.57 66.57 0 0 0-2.22-7.16c-.8-2-1.61-4-2.42-6-.13-.32-.25-.64-.37-1a.8.8 0 0 1 .32-1.08c.65-.41 1.3-.81 2-1.17a45.45 45.45 0 0 1 6.94-2.82c5.59-1.91 11.18-3.78 16.88-5.35 1.67-.46 3.35-.91 5-1.31a14.2 14.2 0 0 1 2.27-.24 2 2 0 0 0 1.18-.33 1 1 0 0 0 .15-1.46 1.83 1.83 0 0 0-1.48-.65 11.81 11.81 0 0 0-2.06.23 159 159 0 0 0-16 4.57c-3.36 1.11-6.74 2.18-10 3.52a41.61 41.61 0 0 0-6 3 10.83 10.83 0 0 1-1.13-3.39 60.51 60.51 0 0 1-1.7-12.36 237.83 237.83 0 0 1 0-24.18c.24-4.51.58-9 1.15-13.5.42-3.37.68-6.77 1-10.16a54.82 54.82 0 0 1 2.41-11.13c.51 0 .41.32.51.51a2.37 2.37 0 0 1 .21.58A35.76 35.76 0 0 0 42 298.26 154.39 154.39 0 0 0 53.33 311c.48.49 1 .94 1.54 1.39a4.23 4.23 0 0 0 .86.59 1.19 1.19 0 0 0 1.5-.29 1.16 1.16 0 0 0-.09-1.36 8.62 8.62 0 0 0-.72-.76A130.92 130.92 0 0 1 44.09 297a36.49 36.49 0 0 1-7.16-14.22c-.29-1.21-.5-2.45-.76-3.67a5.89 5.89 0 0 1 .2-2.47c1.24-5.63 2.5-11.25 3.68-16.89 1.14-5.44 2.16-10.9 3.31-16.33.88-4.14 1.53-8.34 2.7-12.42.29-1 .58-2 1-3a101.46 101.46 0 0 1 6-13.72 41.12 41.12 0 0 1 6.13-8.4 16.42 16.42 0 0 1 2.39-2 9.74 9.74 0 0 1 6.7-1.71 84.6 84.6 0 0 1 14.89 3 8.22 8.22 0 0 1 1.75.67 68.62 68.62 0 0 1 7.77 4.44 7 7 0 0 0 2.4 1.23 1.11 1.11 0 0 0 1.34-.7 1 1 0 0 0-.53-1.23c-3-1.84-6-3.79-9.09-5.48a14.49 14.49 0 0 0-3.47-1.42 91.82 91.82 0 0 0-10.76-2.39c-1.66-.21-3.31-.42-5-.58a10.43 10.43 0 0 0-5.64 1.19 16.55 16.55 0 0 0-4.94 3.79 47.06 47.06 0 0 0-7 10.09 6.06 6.06 0 0 1-1.22 1.95 11 11 0 0 1-1.68-3.16 63.17 63.17 0 0 1-2.85-8.49c-1.18-4.21-2.18-8.46-3-12.77a29.35 29.35 0 0 1 3.55-19.91c2.4-4.33 6.09-7.33 10.2-9.9.6-.37.77-.31 1.22.25a5.86 5.86 0 0 1 .37.5 35.21 35.21 0 0 0 8 8.41 72.52 72.52 0 0 1 7.51 6.6 10.64 10.64 0 0 1 .86.92c1.9 2.52 4.42 4.4 6.78 6.45a7 7 0 0 0 1.57 1 38.64 38.64 0 0 1 12.71 10c3 3.4 5.89 6.85 8.56 10.49a49.9 49.9 0 0 1 6.49 12.32c1.46 3.9 2.49 7.95 3.79 11.91 1.57 4.75 2.58 9.65 3.77 14.5.72 3 1.43 5.95 2.24 8.89a83 83 0 0 1 1.91 10.23c.69 4.68.92 9.4 1.34 14.11a97.86 97.86 0 0 0 1.62 12.18 23.44 23.44 0 0 0 .86 2.78 3.64 3.64 0 0 0 .49.91 1.12 1.12 0 0 0 1.29.43 1.19 1.19 0 0 0 .72-1.35 3.58 3.58 0 0 0-.23-.79 28.41 28.41 0 0 1-1.5-7.12c-.62-4.68-1-9.39-1.35-14.1a113.72 113.72 0 0 0-1.86-13.62 4.1 4.1 0 0 1 .34-2.59 59.4 59.4 0 0 0 4.9-16.81 56.74 56.74 0 0 0 0-12.29 93.69 93.69 0 0 0-1.94-12.34 159.89 159.89 0 0 0-5.55-19c-.61-1.63-1.32-3.21-2-4.81a2.45 2.45 0 0 0-.43-.71 1 1 0 0 0-1.14-.22.89.89 0 0 0-.54.83 3.84 3.84 0 0 0 .41 1.81c.65 1.68 1.34 3.35 1.94 5.05 1.37 3.87 2.42 7.83 3.49 11.79a101.24 101.24 0 0 1 2.34 10.35 95.91 95.91 0 0 1 1.34 12.64 43.41 43.41 0 0 1-2.32 15.62l-1.73 4.94c-.59-.18-.54-.66-.62-1-.62-2.35-1.24-4.7-1.77-7.07-1.22-5.5-2.6-10.94-4.33-16.3-1.17-3.63-2.17-7.32-3.58-10.88a51 51 0 0 0-7.21-12.86c-1.07-1.36-2.09-2.75-3.28-4.31a11.6 11.6 0 0 1 2.58.23 20.73 20.73 0 0 1 2.49.21 47.37 47.37 0 0 0 8.75.17 4 4 0 0 0 1.21-.27 1.5 1.5 0 0 0 1-2.15 18 18 0 0 0-2.08-4.3c-.09-.12-.15-.24-.24-.35-1.68-2.08-1.49-4.17-.18-6.38a12.13 12.13 0 0 1 5-4.55 36.54 36.54 0 0 1 5-2.1 44.87 44.87 0 0 0 8.79-3.77 7.19 7.19 0 0 1 1.94-.73 29.27 29.27 0 0 0 5-1.93q7.22-3.26 14.49-6.39c4.08-1.77 8.16-3.54 12.27-5.23 6.23-2.56 12.48-5.06 18.73-7.57 4.06-1.63 8.11-3.27 12.2-4.84 6.09-2.34 12.21-4.61 18.3-7 3.57-1.37 7.1-2.83 10.65-4.23.77-.31 1.57-.55 2.37-.8a3.72 3.72 0 0 1 4.27 1.33 23.68 23.68 0 0 1 2.47 3.6c.61 1.09 1.19 2.2 1.77 3.31a20.26 20.26 0 0 1 1.37 3.26q1.27 4.06 2.66 8.1a8.23 8.23 0 0 0 3.32 4.78c-.23.54-.67.65-1 .82-6.34 3-12.54 6.28-18.79 9.46-7.67 3.9-15.39 7.73-23.05 11.68s-15.13 7.78-22.54 11.89Zm103-74.09-3.26 3.23a16.5 16.5 0 0 0-2.5 3.37 6 6 0 0 0-.87 2.75 3.3 3.3 0 0 0 4.22 3.49 9.86 9.86 0 0 0 3.57-1.65c1.73-1.28 3.43-2.59 5.15-3.88a7.26 7.26 0 0 1 3-1.45c1.08-.22 1.6.18 1.6 1.26a5.39 5.39 0 0 1-1 2.91 28.24 28.24 0 0 1-2.08 2.86 21.41 21.41 0 0 0-4 6.8 15.81 15.81 0 0 1-3.58 5.31 4.78 4.78 0 0 1-2.71 1.42 20.67 20.67 0 0 1-3.92.46h-2.5a53.28 53.28 0 0 0-14.21 1.72 52.72 52.72 0 0 0-7.26 2.5 23.39 23.39 0 0 1-5.35 1.67 10.29 10.29 0 0 0-1.83.4c-2.27.83-1.94.17-2.43-1.48-.32-1.06-.5-2.16-.79-3.23a26.24 26.24 0 0 0-2.64-6.53c-.77-1.31-1.46-2.67-2.26-4.15a15.51 15.51 0 0 1 3.91-1.37 14.69 14.69 0 0 0 6.33-3.86 47.8 47.8 0 0 0 3.66-4.26c1.54-2 3.08-3.94 4.69-5.85a15.77 15.77 0 0 1 8.71-5.36l4.44-1.06a110.17 110.17 0 0 0 12-3.95c4.54-1.71 9-3.62 13.6-5.18a39.45 39.45 0 0 1 6.85-1.71.65.65 0 0 1 .72.25.87.87 0 0 1 0 .8 5.28 5.28 0 0 1-1.69 2.08A11.6 11.6 0 0 1 298 112c-1.76 1-3.52 1.95-5.32 2.85a39.72 39.72 0 0 0-10.45 7.55Zm.13 4.48a3.48 3.48 0 0 1 1.3 2.62c0 .44 0 .83-.24 1.05a10 10 0 0 1-4.11 2.29c-.85.17-1.35-.29-1.23-1.16a4.07 4.07 0 0 1 .36-1.17 15.49 15.49 0 0 1 2.67-3.66c.37-.43.78-.4 1.22.03Zm-35.53 31.68c-.07.8-.21 1.4-.88 1.67-.46.18-1.12-.35-1.49-1.16a.45.45 0 0 1 .23-.67 12.27 12.27 0 0 1 1.15-.43c.73-.24 1.03.03.96.59Zm237.59 119.17-88.64.93-71.54.73-94.89 1.07q-18.66.21-37.33.39h-1a.63.63 0 0 1-.66-.65c-.07-1.39-.13-2.78-.16-4.17-.23-9.66-.43-19.32-.66-29q-.41-16.89-.84-33.78l-.42-17.09a5.85 5.85 0 0 0 0-.84c-.12-.76.31-1.14.91-1.45 3.32-1.72 6.65-3.44 10-5.18 1.91-1 3.78-2.08 5.7-3 5.46-2.74 10.94-5.43 16.39-8.17 3.48-1.74 7-3.46 10.38-5.31 4.15-2.23 8.42-4.24 12.64-6.36a7.72 7.72 0 0 0 2.31-1.37c.23-.26.6-.54.61-.82.05-1.59 1.76-2.32 1.9-3.83 0-.21.08-.42.08-.62a2.43 2.43 0 0 1 1.68-2.4q2.87-1.24 5.73-2.46a2.86 2.86 0 0 1 .71-.05c.12 2 .26 4 .35 6q.72 17.3 1.43 34.59l1.24 28.75.39 8.75v.63c.14 1.27.61 1.74 1.83 1.83a7.85 7.85 0 0 0 .84 0l32.94-.75 35-.84 35-.83 34.82-.84c7.16-.17 14.32-.37 21.47-.56h2.25a6.36 6.36 0 0 1 .43 2.53c.13 1.23.85 2 1.76 1.88a1.69 1.69 0 0 0 1.4-2c-.14-2.7-.38-5.4-.48-8.11a1.78 1.78 0 0 0-1.78-1.88c-.89.12-1.37.81-1.41 2 0 .8.49 1.78-.2 2.36s-1.47.16-2.23.18q-15.74.4-31.48.78c-9.46.23-18.91.42-28.36.64l-35 .84-35 .84-26.69.65h-1.66a.46.46 0 0 1-.42-.4 5.8 5.8 0 0 1-.1-1c-.17-4.24-.33-8.48-.51-12.71L262 192.37c-.16-3.54-.32-7.09-.47-10.63q-.57-13.65-1.15-27.29c0-.94 0-1.22 1-1.45a54.48 54.48 0 0 1 8.43-1.28c3.19-.22 6.36-.56 9.57-.5a6.13 6.13 0 0 0 4.66-2 19.27 19.27 0 0 0 4.62-7.1 15 15 0 0 1 2.55-4.51c.91-1.14 1.78-2.31 2.64-3.49a9.42 9.42 0 0 0 1.57-3.38 4.63 4.63 0 0 0-.53-3.61 2.79 2.79 0 0 0-2.37-1.45 6.26 6.26 0 0 0-2.84.54 14.33 14.33 0 0 0-3.19 2c-.22.17-.59.25-.7-.08a10.85 10.85 0 0 0-2.39-3.38 33.45 33.45 0 0 1 8.69-6.86c2.37-1.31 4.78-2.55 7.16-3.82a11.27 11.27 0 0 0 3.91-3.38 4.58 4.58 0 0 0 1-2.7 2.52 2.52 0 0 0-2.53-2.73 10.53 10.53 0 0 0-3.3.36c-1.81.49-3.64.91-5.4 1.54-3.13 1.13-6.26 2.26-9.34 3.53a123.56 123.56 0 0 1-15.35 5.3c-1.94.51-3.91.93-5.84 1.46-1.13.31-2.21.76-3.32 1.15-.38-.43-.25-.93-.27-1.39q-.31-6.36-.61-12.71-.45-10.3-.88-20.63c-.05-1.18-.06-2.36-.1-3.54s.15-1.25 1.1-1.25a6.52 6.52 0 0 0 1.25-.1 1.59 1.59 0 0 0-.18-3.17 13.25 13.25 0 0 0-1.67.06l-5.2.34a4.81 4.81 0 0 0-1.64.22 1.66 1.66 0 0 0-1.1 1.6 1.63 1.63 0 0 0 1.51 1.46h2.6a11.51 11.51 0 0 1 .34 2.85c.16 3.33.29 6.66.44 10q.57 13.65 1.16 27.29a1.94 1.94 0 0 1-.51 1.7 64.5 64.5 0 0 0-6.73 7.94 97.654 97.654 0 0 1-3.37 4 12.07 12.07 0 0 1-5.76 3.59c-.67.18-1.33.41-2 .64a7.86 7.86 0 0 1-2.15.71c-.79 0-1.13-.94-1.74-1.39a5.84 5.84 0 0 0-5.73-.78c-2.68 1-5.34 2-8 3s-5.16 2-7.71 3.12c-6.25 2.68-12.79 4.59-19.09 7.14-1.54.63-3.07 1.28-4.62 1.89a1.86 1.86 0 0 1-1.25.21c0-.48-.07-1-.08-1.45l-.51-20.85-.84-34-.84-33.78q-.33-13.24-.67-26.48a13.14 13.14 0 0 1 0-1.66.6.6 0 0 1 .39-.4 10.36 10.36 0 0 1 1.25-.06l37.54-.4q35.35-.37 70.7-.75 32.11-.33 64.24-.62l86.14-.9 37.95-.39h.84a.64.64 0 0 1 .65.66v1.66l.34 34q.4 38.37.83 76.75l.84 75.71q.31 28.46.66 56.93c.13 2.62.5 2.32-2.15 2.35Z"/><path fill="#060404" d="M128.26 143.76a6.92 6.92 0 0 0-.31-1.21 6.22 6.22 0 0 0-3-3.59 1.61 1.61 0 0 0-2.48 1 6.4 6.4 0 0 0-.49 2.44c0 .35 0 .7.09 1a4.07 4.07 0 0 0 3.22 3.39 2.53 2.53 0 0 0 2.97-3.03Zm-3 0a.75.75 0 0 1-1 .27 2.58 2.58 0 0 1-.89-2 .67.67 0 0 1 .37-.66.81.81 0 0 1 .78.08 2.12 2.12 0 0 1 1 1.68 5.26 5.26 0 0 1-.24.61Zm1.94.61a.59.59 0 0 1-.2.06.94.94 0 0 1-.85-.95.53.53 0 0 1 .42-.6.8.8 0 0 1 .93.6.78.78 0 0 1-.28.87Z"/><path d="M107.88 107.06zM110.36 109.15a.48.48 0 0 1 .22.13l-.22-.14ZM109.12 107.89a1.63 1.63 0 0 0-.11-.17 1 1 0 0 1 .11.17ZM108.89 107.61a.57.57 0 0 0-.23-.08.57.57 0 0 1 .23.08Z"/><path fill="#f38704" d="M139.14 304.27c-3.95-1.19-7.67-2.3-11.38-3.44-2.52-.78-5.11-1.32-7.68-1.88-2.93-.63-5.84-1.28-8.71-2.1-.8-.23-1.58-.54-2.36-.82-3.37-1.21-5-3.84-5.68-7.15a27.51 27.51 0 0 1-.19-7.69c.32-4.65.7-9.28.65-13.95a88.87 88.87 0 0 0-.6-8.94c-.1-1-.2-1.94-.31-2.9a3.08 3.08 0 0 0-.2-1 1 1 0 0 0-1-.53.88.88 0 0 0-.75.63 3.22 3.22 0 0 0-.14 1 21.65 21.65 0 0 0 .17 2.91 36.73 36.73 0 0 1 .39 5.82c0 3.76 0 7.52-.18 11.26-.17 2.91-.34 5.83-.52 8.74a19.5 19.5 0 0 0 .37 5.18c.93 4.57 3.5 7.77 8.06 9.24 3 1 6 1.67 9.07 2.34a101.23 101.23 0 0 1 12.08 3.17c1.5.52 3.06.89 4.61 1.3 1.75.46 3.42 1.13 5.12 1.76a4 4 0 0 1 2.3 2 4.71 4.71 0 0 0 4.8 2.64c1.19 0 2.37-.09 3.55-.12a4.92 4.92 0 0 1 3.09 1 4.2 4.2 0 0 1 1.86 3.52 28.59 28.59 0 0 1-.91 7.43 24.56 24.56 0 0 0-.7 4.73 20.57 20.57 0 0 1-1.19 6.11c-.43 1.22-.17 1.77 1 2.3.38.16.78.29 1.14.48a.46.46 0 0 1 .2.56c-.52.23-1.06 0-1.6 0-6.95-.26-13.9-.4-20.85 0a207.89 207.89 0 0 0-21.59 2.13 7.85 7.85 0 0 1-3.28-.39c-1.68-.43-3.34-.94-5-1.5a63.52 63.52 0 0 0-9.5-2.3 53 53 0 0 1-12.67-4l-5.88-2.68a21.75 21.75 0 0 1-3.07-1.76 15.85 15.85 0 0 1-7.11-13.24c-.14-4.3 0-8.62-.1-12.93a107 107 0 0 0-1.36-14.72c-.51-3.15-.9-6.33-1.34-9.49-.48-3.44-.91-6.89-1.43-10.32a39.32 39.32 0 0 1-.22-8.74 21.9 21.9 0 0 0 .07-2.29 4.71 4.71 0 0 0-.24-1.22.82.82 0 0 0-.79-.57.91.91 0 0 0-1 .61 2.57 2.57 0 0 0-.18.81c-.12 3.75-.52 7.5-.09 11.25.38 3.31.85 6.61 1.32 9.91.49 3.51 1 7 1.51 10.52.3 2.13.6 4.27.84 6.41a148 148 0 0 1 .46 16c0 1.74-.06 3.48.07 5.21a19.51 19.51 0 0 0 3.81 10.64 17.76 17.76 0 0 0 6.17 5.2c5.59 2.8 11.22 5.53 17.34 7 1.61.4 3.24.78 4.89 1a63.18 63.18 0 0 1 10 2.66c.09.38-.2.5-.42.56-4.09 1.15-8 2.84-12 4.26-5.24 1.86-10.5 3.64-15.71 5.57-5.86 2.16-11.77 4.23-17.4 7a46.2 46.2 0 0 0-14.37 10.52 19.59 19.59 0 0 0-4.72 8 3.18 3.18 0 0 1-.42.63 6 6 0 0 1-.76-1.88 66.57 66.57 0 0 0-2.22-7.16c-.8-2-1.61-4-2.42-6-.13-.32-.25-.64-.37-1a.8.8 0 0 1 .32-1.08c.65-.41 1.3-.81 2-1.17a45.45 45.45 0 0 1 6.94-2.82c5.59-1.91 11.18-3.78 16.88-5.35 1.67-.46 3.35-.91 5-1.31a14.2 14.2 0 0 1 2.27-.24 2 2 0 0 0 1.18-.33 1 1 0 0 0 .15-1.46 1.83 1.83 0 0 0-1.48-.65 11.81 11.81 0 0 0-2.06.23 159 159 0 0 0-16 4.57c-3.36 1.11-6.74 2.18-10 3.52a41.61 41.61 0 0 0-6 3 10.83 10.83 0 0 1-1.13-3.39 60.51 60.51 0 0 1-1.7-12.36 237.83 237.83 0 0 1 0-24.18c.24-4.51.58-9 1.15-13.5.42-3.37.68-6.77 1-10.16a54.82 54.82 0 0 1 2.41-11.13c.51 0 .41.32.51.51a2.37 2.37 0 0 1 .21.58A35.76 35.76 0 0 0 42 298.26 154.39 154.39 0 0 0 53.33 311c.48.49 1 .94 1.54 1.39a4.23 4.23 0 0 0 .86.59 1.19 1.19 0 0 0 1.5-.29 1.16 1.16 0 0 0-.09-1.36 8.62 8.62 0 0 0-.72-.76A130.92 130.92 0 0 1 44.09 297a36.49 36.49 0 0 1-7.16-14.22c-.29-1.21-.5-2.45-.76-3.67a5.89 5.89 0 0 1 .2-2.47c1.24-5.63 2.5-11.25 3.68-16.89 1.14-5.44 2.16-10.9 3.31-16.33.88-4.14 1.53-8.34 2.7-12.42.29-1 .58-2 1-3a101.46 101.46 0 0 1 6-13.72 41.12 41.12 0 0 1 6.13-8.4 16.42 16.42 0 0 1 2.39-2 9.74 9.74 0 0 1 6.7-1.71 84.6 84.6 0 0 1 14.89 3 8.22 8.22 0 0 1 1.75.67 68.62 68.62 0 0 1 7.77 4.44 7 7 0 0 0 2.4 1.23 1.11 1.11 0 0 0 1.34-.7 1 1 0 0 0-.53-1.23c-3-1.84-6-3.79-9.09-5.48a14.49 14.49 0 0 0-3.47-1.42 91.82 91.82 0 0 0-10.76-2.39c-1.66-.21-3.31-.42-5-.58a10.43 10.43 0 0 0-5.64 1.19 16.55 16.55 0 0 0-4.94 3.79 47.06 47.06 0 0 0-7 10.09 6.06 6.06 0 0 1-1.22 1.95 11 11 0 0 1-1.68-3.16 63.17 63.17 0 0 1-2.85-8.49c-1.18-4.21-2.18-8.46-3-12.77a29.35 29.35 0 0 1 3.55-19.91c2.4-4.33 6.09-7.33 10.2-9.9.6-.37.77-.31 1.22.25a5.86 5.86 0 0 1 .37.5 35.21 35.21 0 0 0 8 8.41 72.52 72.52 0 0 1 7.51 6.6 10.64 10.64 0 0 1 .86.92c1.9 2.52 4.42 4.4 6.78 6.45a7 7 0 0 0 1.57 1 38.64 38.64 0 0 1 12.71 10c3 3.4 5.89 6.85 8.56 10.49a49.9 49.9 0 0 1 6.49 12.32c1.46 3.9 2.49 7.95 3.79 11.91 1.57 4.75 2.58 9.65 3.77 14.5.72 3 1.43 5.95 2.24 8.89a83 83 0 0 1 1.91 10.23c.69 4.68.92 9.4 1.34 14.11a97.86 97.86 0 0 0 1.62 12.18 23.44 23.44 0 0 0 .86 2.78 3.64 3.64 0 0 0 .49.91 1.12 1.12 0 0 0 1.29.43 1.19 1.19 0 0 0 .72-1.35 3.58 3.58 0 0 0-.23-.79 28.41 28.41 0 0 1-1.5-7.12c-.62-4.68-1-9.39-1.35-14.1a113.72 113.72 0 0 0-1.86-13.62 4.1 4.1 0 0 1 .34-2.59 59.4 59.4 0 0 0 4.9-16.81 56.11 56.11 0 0 0 0-12.29 93.69 93.69 0 0 0-1.94-12.34 159.89 159.89 0 0 0-5.55-19c-.61-1.63-1.32-3.21-2-4.81a2.69 2.69 0 0 0-.43-.71 1 1 0 0 0-1.14-.22.89.89 0 0 0-.54.83 3.84 3.84 0 0 0 .41 1.81c.65 1.68 1.34 3.35 1.94 5.05 1.37 3.87 2.42 7.83 3.49 11.79a101.24 101.24 0 0 1 2.34 10.35 95.91 95.91 0 0 1 1.34 12.64 43.41 43.41 0 0 1-2.32 15.62l-1.73 4.94c-.59-.18-.54-.66-.62-1-.62-2.35-1.24-4.7-1.77-7.07-1.22-5.5-2.6-10.94-4.33-16.3-1.17-3.63-2.17-7.32-3.58-10.88a51 51 0 0 0-7.21-12.86c-1.07-1.36-2.09-2.75-3.29-4.31a11.64 11.64 0 0 1 2.59.23 20.73 20.73 0 0 1 2.49.21 47.37 47.37 0 0 0 8.75.17 4 4 0 0 0 1.21-.27 1.5 1.5 0 0 0 1-2.15 18 18 0 0 0-2.08-4.3c-.09-.12-.15-.24-.24-.35-1.68-2.08-1.49-4.17-.18-6.38a12.13 12.13 0 0 1 5-4.55 36.54 36.54 0 0 1 5-2.1 44.87 44.87 0 0 0 8.79-3.77 7.19 7.19 0 0 1 1.94-.73 29.27 29.27 0 0 0 5-1.93q7.22-3.26 14.49-6.39c4.08-1.77 8.16-3.54 12.27-5.23 6.23-2.56 12.48-5.06 18.73-7.57 4.06-1.63 8.11-3.27 12.2-4.84 6.09-2.34 12.21-4.61 18.3-7 3.57-1.37 7.1-2.83 10.65-4.23.77-.31 1.57-.55 2.37-.8a3.72 3.72 0 0 1 4.27 1.33 23.68 23.68 0 0 1 2.47 3.6c.61 1.09 1.19 2.2 1.77 3.31a20.26 20.26 0 0 1 1.37 3.26q1.27 4.06 2.66 8.1a8.23 8.23 0 0 0 3.32 4.78c-.23.54-.67.65-1 .82-6.34 3-12.54 6.28-18.79 9.46-7.67 3.9-15.39 7.73-23.05 11.68s-15.09 7.72-22.5 11.83c-9.17 5.09-18.61 9.67-27.88 14.58-3.43 1.82-6.84 3.71-10.28 5.51-1.48.77-3 1.41-4.54 2.09-.71.32-.91.19-1.11-.66l-1.71-7.08c-.61-2.58-1.68-5-2.53-7.5a3.25 3.25 0 0 0-.28-.56 1 1 0 0 0-1.2-.54 1.16 1.16 0 0 0-.75 1.14 5.14 5.14 0 0 0 .25 1c3 8.13 4.48 16.61 5.8 25.12.84 5.36 1.28 10.76 1.78 16.16.74 8 .93 16 1.43 23.93.32 5.21.26 10.43.23 15.64 0 5 .07 10 .35 15 .06 1 .24 1.92.35 2.89-.01.35-.04.62-.04 1.12ZM119.15 487.07a62.64 62.64 0 0 1-7.59-.55 204.81 204.81 0 0 0-21-1.13 20.49 20.49 0 0 1-5.55-.73 18.6 18.6 0 0 1-9.85-6.29c-5.31-6.44-11-12.51-16.3-19-.79-1-1.51-2-2.32-2.95a10 10 0 0 1-2.31-6.56 18.13 18.13 0 0 1 3.13-11.05 20.18 20.18 0 0 1 9-7.18 6.8 6.8 0 0 1 3.48-.42 1.53 1.53 0 0 1 1.53 1.81c-.11 1-.08 2.09-.1 3.13v1.67c.19 5.31 3.06 8.78 7.66 11a11.53 11.53 0 0 0 10.82-.42c1.11-.58 2.15-1.29 3.21-1.94.48-.29 1-.59 1.42-.89a.9.9 0 0 1 1.29.16c.5.58 1 1.14 1.47 1.76a116.41 116.41 0 0 0 12.06 13.8 29.16 29.16 0 0 0 11.92 7 59.45 59.45 0 0 0 6 1.56c1 .21 1.89.45 2.82.74a3.37 3.37 0 0 1 2.37 2.42c.57 2.15 1.19 4.28 1.73 6.43a3.93 3.93 0 0 1-1.84 4.65 14.05 14.05 0 0 1-4.72 2.12 28.73 28.73 0 0 1-8.33.86Z"/><path fill="#f38704" d="M144.68 483a34.63 34.63 0 0 1-7-.84c-.88-.18-.94-.25-1-1.06-.18-3.23-1.27-6.25-2.21-9.3a5.15 5.15 0 0 0-3.1-3.17 17.37 17.37 0 0 0-3.8-1.09 44.21 44.21 0 0 1-9.13-2.8 23.45 23.45 0 0 1-7.38-5 112.83 112.83 0 0 1-12-13.6c-.52-.73-1.14-1.4-1.7-2.11-.16-.2-.35-.42-.13-.73a.86.86 0 0 1 1.09-.3 8.67 8.67 0 0 1 .82.65 19.83 19.83 0 0 0 3.07 2.14 8.54 8.54 0 0 0 4.34 1.28 14.72 14.72 0 0 0 1.88 0 40 40 0 0 0 11.71-2.72 1.66 1.66 0 0 1 2.18.36c3 2.94 5.86 5.93 8.7 9a51.88 51.88 0 0 0 7.21 6.61c.67.5 1.36 1 2.05 1.43a14.23 14.23 0 0 0 6.8 2.41c1.45.11 2.9.31 4.35.44a19.36 19.36 0 0 1 3.46.73 5.44 5.44 0 0 1 3.28 2.39 23.24 23.24 0 0 1 2.92 6.19 3.92 3.92 0 0 1-1.4 4.46 17.08 17.08 0 0 1-4.87 2.78 27.64 27.64 0 0 1-10.14 1.85Z"/><path d="M317.93 187.53c.64-.31.61-.78.73-1.16q6.64-20.62 13.27-41.23c1.27-4 2.53-7.94 3.81-11.9a8.35 8.35 0 0 1 .51-1.37 1.51 1.51 0 0 1 2.69-.05 9.67 9.67 0 0 1 .51 1.14q10.05 24.69 20.11 49.37c1 2.58 2.11 5.14 3.16 7.71.1.24.1.54.41.65s.42-.3.52-.55l4.58-11.4a9.94 9.94 0 0 1 .59-1.33 1.49 1.49 0 0 1 2.47-.23 11 11 0 0 1 1 1.33l6.5 9.19c.4.57.81 1.12 1.3 1.78a5.07 5.07 0 0 0 1.1-2q9.82-21.72 19.64-43.46 10.67-23.62 21.34-47.26c.25-.55.48-1.11.72-1.69-.61-.12-.87.25-1.18.45-1.18.73-2.34 1.51-3.51 2.25a5.22 5.22 0 0 1-1.12.53 1.34 1.34 0 0 1-1.49-.48 1.44 1.44 0 0 1 0-1.74 5.2 5.2 0 0 1 1.08-1c.92-.62 1.88-1.19 2.81-1.79l4.89-3.19c.46-.3.93-.6 1.41-.87a1.08 1.08 0 0 1 1.18 0 3.06 3.06 0 0 1 1.56 2.08c.54 3 1.19 6 1.77 9a6.44 6.44 0 0 1 .1 1.45 1.38 1.38 0 0 1-2.7.44 11.58 11.58 0 0 1-.57-2c-.22-1-.36-2.06-.55-3.08-.08-.46-.06-1-.57-1.33-.31.63-.63 1.23-.91 1.86l-42.27 93.57a20.47 20.47 0 0 1-1 2.07 1.52 1.52 0 0 1-2.61.2 16 16 0 0 1-1-1.34c-2.12-3-4.23-6-6.37-9a4.81 4.81 0 0 0-1.32-1.59c-.46.28-.52.78-.69 1.21q-2.29 5.7-4.57 11.4a14.57 14.57 0 0 1-.76 1.71 1.49 1.49 0 0 1-2.68 0 9.27 9.27 0 0 1-.61-1.32q-6.31-15.56-12.66-31.18-4.91-12.06-9.85-24.1c-.23-.57-.47-1.14-.7-1.69-.53 0-.56.41-.66.73l-9.17 28.55q-3.85 12-7.72 24a14.43 14.43 0 0 1-.55 1.56 1.5 1.5 0 0 1-2.78.17 16.41 16.41 0 0 1-.9-1.65l-10.15-19.61-1.07-2c-.75.13-.77.78-1 1.23q-6.92 14.36-13.79 28.73c-1.18 2.44-2.34 4.88-3.52 7.32a8.5 8.5 0 0 1-.82 1.44 1.51 1.51 0 0 1-1.9.32 1.49 1.49 0 0 1-.66-1.61 10.7 10.7 0 0 1 .57-1.35q9.48-19.81 19-39.63a10 10 0 0 1 .48-.92 1.51 1.51 0 0 1 2.71-.09 12.74 12.74 0 0 1 .8 1.45L317.12 186c.25.49.52 1 .81 1.53Z"/><path fill="#010101" d="M356.55 251.37c-.36.49-.75 1-1.19 1.58-2 2.39-4.4 2.75-7 1.12-.75-.47-1.35-1.45-2.3-1.22a8 8 0 0 0-2.11 1.3 6.85 6.85 0 0 1-2.06 1 3.36 3.36 0 0 1-3.71-1.24l-.88-1.21c-.51.09-.45.6-.69.87a1.16 1.16 0 0 1-1.46.38 1 1 0 0 1-.6-1.21 15.4 15.4 0 0 1 .88-2.77 1.56 1.56 0 0 1 2.59-.54 6.28 6.28 0 0 1 .94 1.11c.37.5.68 1 1.05 1.55a1.12 1.12 0 0 0 1.63.39 20.1 20.1 0 0 0 1.77-1.1c2.47-1.67 3.23-1.68 5.62 0a9.37 9.37 0 0 0 1.21.8 2.23 2.23 0 0 0 2.84-.52 10.06 10.06 0 0 0 .89-1.15c.27-.4.48-.85.77-1.24a2 2 0 0 1 3.19-.48c.44.34.82.75 1.23 1.12a1.68 1.68 0 0 0 2.1.3 22.74 22.74 0 0 0 2.13-1.29c1.51-1.08 3-1.37 4.6-.19a2.11 2.11 0 0 0 2.16.26c.71-.28 1.43-.53 2.13-.83a3.64 3.64 0 0 1 3.22 0 5.09 5.09 0 0 0 3.66.2c.81-.19 1.6-.45 2.39-.71a5.2 5.2 0 0 1 4.06.22 7.33 7.33 0 0 0 4.88.43c1.56-.3 3.13-.61 4.71-.86a21.65 21.65 0 0 1 2.28-.17 3.35 3.35 0 0 1 .83.09 1.35 1.35 0 0 1 1.19 1.24 1.24 1.24 0 0 1-1.25 1.17 77.74 77.74 0 0 0-8 1.2 8.47 8.47 0 0 1-5.29-.59 4.08 4.08 0 0 0-3.05-.13c-1 .28-2 .55-3 .81a5.79 5.79 0 0 1-3.87-.3 2.5 2.5 0 0 0-2.2 0c-.63.29-1.3.49-1.95.72a4.23 4.23 0 0 1-4.15-.51 1.23 1.23 0 0 0-1.69 0 18.57 18.57 0 0 1-1.92 1.25c-2.26 1.28-3.7 1.17-5.74-.42-.26-.2-.39-.47-.84-.43ZM295.45 251.75c-.65.14-1.07.65-1.61.95s-1.29.83-2 1.14c-1.67.75-3.23.73-4.51-.81-.13-.15-.24-.36-.59-.28s-.6.62-1 .94c-.58.49-1.12 1-1.73 1.48a4.15 4.15 0 0 1-5.2-.17c-.61-.51-1.07-1.44-2-1.26-.75.14-1.18.93-1.77 1.41a13.94 13.94 0 0 1-1.78 1.41 2.34 2.34 0 0 1-3.52-1 13 13 0 0 1-.81-2.13 34.37 34.37 0 0 0-1-3.4 2.87 2.87 0 0 1 0-2 1.07 1.07 0 0 1 .87-.79 1.06 1.06 0 0 1 1.21.59 16 16 0 0 1 .53 1.79c.3 1.14.58 2.29.9 3.42a8.51 8.51 0 0 0 .48 1.13 4.75 4.75 0 0 0 2-1.53c2-2 3.61-2.32 5.93-.15 1.25 1.17 1.81 1.48 3.53-.12.66-.61 1.2-1.35 1.82-2 1.28-1.37 2.28-1.39 3.4.16s1.33 1.48 3.06.46c.84-.49 1.59-1.12 2.41-1.63a2.24 2.24 0 0 1 3.42.67c.47.68.84 1.44 1.24 2.16a.94.94 0 0 0 1.23.49 12.09 12.09 0 0 0 1.52-.67c.68-.34 1.35-.72 2-1.08a4.5 4.5 0 0 1 4.38-.23 3 3 0 0 0 3.14-.17 4.89 4.89 0 0 1 4.4-.42c.79.27 1.6.45 2.39.71a10.53 10.53 0 0 0 2.68.28 1.1 1.1 0 0 1 1 .92 1.25 1.25 0 0 1-.72 1.37 3.42 3.42 0 0 1-2.23.25c-1.07-.3-2.15-.55-3.2-.88a4.07 4.07 0 0 0-3.58.28 4.33 4.33 0 0 1-4.55.2 2.74 2.74 0 0 0-2.78.12c-.66.38-1.33.75-2 1.09a11.89 11.89 0 0 1-1.72.74 3.26 3.26 0 0 1-4.12-1.49 7.48 7.48 0 0 0-1.12-1.95Z"/><path fill="#020101" d="M451.25 251.76a10.38 10.38 0 0 1-3.56-.63c-.59-.21-1.18-.4-1.75-.66a5.2 5.2 0 0 0-4-.07c-1.17.42-2.39.73-3.58 1.09a6.11 6.11 0 0 1-5.68-1.14c-.22-.17-.45-.32-.66-.51a2.6 2.6 0 0 0-3.24-.37 11.47 11.47 0 0 1-2.13.83 5 5 0 0 1-4.4-.32 3.1 3.1 0 0 0-1.17-.35 1.17 1.17 0 0 1-.93-1 1.86 1.86 0 0 1 .81-1.79 1.36 1.36 0 0 1 1.39 0 2.72 2.72 0 0 1 .62.55 2.09 2.09 0 0 0 2.27.62 12.69 12.69 0 0 0 1.58-.52c.64-.25 1.28-.53 1.91-.81a3.89 3.89 0 0 1 3.78.32c.59.36 1.14.79 1.69 1.2a3.71 3.71 0 0 0 3.52.71c.92-.29 1.88-.5 2.77-.84a8.32 8.32 0 0 1 7.05.17 6.27 6.27 0 0 0 1 .37 6.37 6.37 0 0 0 4.07.24 15.36 15.36 0 0 1 2.44-.53 1.17 1.17 0 0 1 1.42.9 1.21 1.21 0 0 1-.81 1.49 17.17 17.17 0 0 1-4.41 1.05Z"/><path fill="#ab6464" d="M287.74 273.48c0-.2.06-.35.28-.29.06 0 .08.19.12.29a.28.28 0 0 1-.4 0Z"/><path fill="#609898" d="M287.74 273.48h.4c0 .19-.06.34-.29.29-.06-.02-.08-.19-.11-.29Z"/><path fill="#020100" d="M80.69 193.63a1.13 1.13 0 0 1-1 1.13 1.5 1.5 0 0 1-1.28-.59c-.46-.6-.92-1.22-1.33-1.86a44.76 44.76 0 0 0-18.8-16.26c-.63-.3-1.24-.62-1.88-.9A28 28 0 0 0 51 173a.94.94 0 0 1-.33-1.65 1.46 1.46 0 0 1 1.54-.37c.85.3 1.7.6 2.53 1a70.12 70.12 0 0 1 11.31 5.71 47.22 47.22 0 0 1 12.21 12.08c.7 1 1.34 1.94 2 2.94a5.65 5.65 0 0 1 .43.92Z"/><path fill="#050300" d="M138.41 324.58a11.45 11.45 0 0 1 .34-4.32 8.06 8.06 0 0 1 .54-1.33 1 1 0 0 1 1.27-.38 1 1 0 0 1 .63 1 3.87 3.87 0 0 1-.19.8 15.07 15.07 0 0 0 .31 8.57 2.7 2.7 0 0 1 .17.6 1.05 1.05 0 0 1-.39.92 1 1 0 0 1-1.17.11 2 2 0 0 1-1-1.25 12 12 0 0 1-.47-2.22c-.11-.84-.04-1.67-.04-2.5Z"/><path fill="#060404" d="M126.77 163.93a4.11 4.11 0 0 0 3.4 1.7c.69 0 1.39-.09 2.08-.13a3.53 3.53 0 0 1 1 .05 1.11 1.11 0 0 1 .83.85 1.06 1.06 0 0 1-.47 1.08 1.37 1.37 0 0 1-.53.31c-2.76.47-5.41.46-7.61-1.67a4.47 4.47 0 0 1-1.14-1.71 2.06 2.06 0 0 1 1-2.66 4.66 4.66 0 0 1 1.38-.45 22.61 22.61 0 0 0 4.05-.92 1.76 1.76 0 0 1 .61-.07 1 1 0 0 1 1 .66.85.85 0 0 1-.35 1.09 7 7 0 0 1-1.68.8 18.57 18.57 0 0 1-2.24.48 2.32 2.32 0 0 0-1.33.59ZM122.43 129.38a1.29 1.29 0 0 1 1.23.54 1.15 1.15 0 0 1-.66 1.67c-.79.24-1.61.41-2.41.6a7.21 7.21 0 0 0-5 4.28c-.18.37-.31.77-.51 1.13a1 1 0 0 1-1.21.52 1.18 1.18 0 0 1-.74-1.15 1.81 1.81 0 0 1 .14-.59c1.54-4.45 4.87-6.5 9.16-7Z"/><path fill="#0c0909" d="M100.87 156.68c-.2 1.06.12 1.17 1.06 1.57.25.11.53.15.76.28a1.14 1.14 0 0 1 .46 1.26 1 1 0 0 1-.93.7 3.42 3.42 0 0 1-3.54-4.49 1.21 1.21 0 0 1 1.83-.67c.49.31.49.77.36 1.35Z"/><path fill="#010000" d="M104.61 478.92a60.8 60.8 0 0 1-9.47-.27 20 20 0 0 1-12-5.75 65.67 65.67 0 0 1-4.93-5.08 20.9 20.9 0 0 0-1.72-1.8 91.82 91.82 0 0 1-8.35-9.28c-2.89-3.55-5.93-7-8.92-10.46-.67-.78-.75-1.32-.23-1.78s1-.39 1.67.18a13 13 0 0 1 1.16 1.19c3.62 4 7.31 8 10.61 12.3a52.39 52.39 0 0 0 4.21 4.61c2.62 2.68 5.21 5.38 7.85 8.05a18.17 18.17 0 0 0 9.36 5.17 30.9 30.9 0 0 0 5.17.5 108.92 108.92 0 0 0 13.52-.36c2.64-.22 5.26-.43 7.9-.44a9.12 9.12 0 0 1 1.65.15 1.06 1.06 0 0 1 .78 1.09 1 1 0 0 1-.72.92 5 5 0 0 1-1.43.25c-5.63.04-11.21.94-16.11.81Z"/><path fill="#050300" d="M142.94 472.06a55.82 55.82 0 0 0 10.92-1.48 5 5 0 0 1 1.84-.23 1 1 0 0 1 .84.8.87.87 0 0 1-.38.9 2.66 2.66 0 0 1-.93.44 56.07 56.07 0 0 1-12.92 2.06 8.38 8.38 0 0 1-1.87-.14 1.33 1.33 0 0 1-1.14-1.29 1.31 1.31 0 0 1 1.35-1.05c.76-.07 1.53-.01 2.29-.01Z"/><path d="M400.68 52.3a16.14 16.14 0 0 0-3.11-.29c-.45 0-1 .19-1.35-.23a.58.58 0 0 1 0-.22c.37-1.11.78-2.22 1.12-3.34a9.64 9.64 0 0 0 .6-2.42c0-1.6-1-2.54-2.53-2.13s-3 1-3.34 2.93a17.41 17.41 0 0 1-1 3.18 5.45 5.45 0 0 1-.89 2.18h-5.35c-4.93.13-9.86.31-14.79.47-.49 0-1 .06-1.46 0a.63.63 0 0 1-.66-.65c0-.83 0-1.67-.1-2.5-.13-1.38-.22-2.78-.48-4.13a2 2 0 0 0-3.34-1.33 3.67 3.67 0 0 0-1 1 5.72 5.72 0 0 1-.86 1.16 1.68 1.68 0 0 0-.48 1.52c.1 1.18.19 2.36.24 3.54s0 1.18-1.05 1.26-2.07.14-3.11.23a1.34 1.34 0 0 0-1.32 1.11 6.48 6.48 0 0 0-.08 2.28 59.8 59.8 0 0 1-2.25 20.61 35.88 35.88 0 0 1-11 17.8c-.48.41-.93.83-1.37 1.28a4.86 4.86 0 0 0-.8 1 1.74 1.74 0 0 0 .92 2.69 4.33 4.33 0 0 0 1.63.24c5.22 0 10.42-.08 15.62-.58a59.38 59.38 0 0 1 12.07-.24c1.79.19 3.58.43 5.38.63a36.56 36.56 0 0 0 8.1.25 8.78 8.78 0 0 0 7.53-5.13 49.59 49.59 0 0 0 2.82-7.6c1.16-4.07 2-8.21 3.07-12.32 1.17-4.64 2.5-9.24 3.74-13.87a27.94 27.94 0 0 0 1.06-5.51 2.41 2.41 0 0 0-2.18-2.87Zm-1.48 7.86c-2 7.08-3.85 14.21-5.54 21.37a74.59 74.59 0 0 1-2.43 8.4 25.58 25.58 0 0 1-1.9 4.16 5.15 5.15 0 0 1-3.33 2.56 15.74 15.74 0 0 1-2.88.41 50.31 50.31 0 0 1-8.93-.65 52.92 52.92 0 0 0-10.6-.42c-5.68.42-11.36.94-17.07.89h-1.46c-.17 0-.29 0-.31-.19a.59.59 0 0 1 .05-.38 5.4 5.4 0 0 1 .59-.58 37.67 37.67 0 0 0 11-17.64A57.61 57.61 0 0 0 359 59.63c0-1.25-.16-2.5-.26-3.75a.73.73 0 0 1 .7-.85 16.81 16.81 0 0 1 1.87-.14c.77 0 .91.15 1 1 .25 1.58.52 3.16.75 4.74a4.42 4.42 0 0 0 1.34 2.52 1.65 1.65 0 0 0 1.88.55c.85-.35 1.68-.8 1.76-1.85s0-1.95 0-2.92c0-.63-.07-1.25-.1-1.88-.09-1.8-.17-1.8 1.71-1.93 3.68-.27 7.37-.22 11.05-.37 2.29-.1 4.58-.13 6.87-.18h1.25c.41 0 .7.24.54.84-.44 1.61-.89 3.21-1.33 4.82-.18.67-.35 1.35-.47 2a1.36 1.36 0 0 0 .78 1.55c.18.1.38.16.57.25 1.28.62 1.63.53 2.34-.68a3.58 3.58 0 0 1 1.11-1.48 2.41 2.41 0 0 0 .81-1.41c.59-1.64 1.14-3.28 1.71-4.92.27-.78.38-.9 1.17-.89a11.57 11.57 0 0 1 4.13.33 31 31 0 0 1-.98 5.18ZM467.13 131.42a4.37 4.37 0 0 0-4.1-3.55 27 27 0 0 0-4.58-.17c-1.88.09-3.75.15-5.63.22a5.91 5.91 0 0 1-1 0 .41.41 0 0 1-.38-.42c0-.55.08-1.1.08-1.66a26.41 26.41 0 0 0 0-3.33 1.32 1.32 0 0 0-1.94-1.2 4.34 4.34 0 0 1-2.22.38c-.83-.15-1.43.41-2.19.35-1.45-.11-1.67.11-1.8 1.52s-.24 2.77-.37 4.15c-.07.71-.19.82-.9.89-.55.06-1.11.08-1.66.1l-12.3.55a25.66 25.66 0 0 0-2.9.29 1.31 1.31 0 0 0-1.15 1.66 6.57 6.57 0 0 0 1.13 2.66 9 9 0 0 1 1.47 5.13 84.66 84.66 0 0 1-1.07 13.5 80.39 80.39 0 0 1-4.48 16.23c-.64 1.69-1.33 3.36-2 5a4.24 4.24 0 0 0-.41 1.81 1.65 1.65 0 0 0 .93 1.52 6 6 0 0 0 1.37.46 21.81 21.81 0 0 0 4.77.47 40.23 40.23 0 0 0 4.77-.42q6.3-.77 12.61-1.56a43.12 43.12 0 0 1 9.36-.43c.69.05 1.38.13 2.08.16a21.86 21.86 0 0 0 4.78-.12 4.26 4.26 0 0 0 3.58-3.07 18.9 18.9 0 0 0 .74-2.82c.63-4.12 1.26-8.24 1.79-12.37.57-4.41 1.06-8.84 1.52-13.26a72.86 72.86 0 0 0 .59-9.57 13.42 13.42 0 0 0-.49-3.1Zm-2.71 11.64c-.45 4.42-1 8.83-1.49 13.24s-1.14 9.1-2 13.59c-.63 3.17-.85 3.19-4 3.26-1.8 0-3.61-.14-5.41-.22a53.92 53.92 0 0 0-9.75.63c-5 .67-9.93 1.22-14.9 1.77a13.32 13.32 0 0 1-5.14-.42c-.2-.45 0-.81.19-1.19a104.66 104.66 0 0 0 5.39-16.38 67.19 67.19 0 0 0 1.48-9.46 76.37 76.37 0 0 0 .43-9.57 11.63 11.63 0 0 0-.41-2.87 11.12 11.12 0 0 0-1.09-2.47c-.2-.34-.54-.65-.39-1.12 1.22-.15 14.53-.58 15.39-.49 0 1 0 2 .08 3.07 0 .55.07 1.11.14 1.66a1.39 1.39 0 0 0 1.07 1.14 1.23 1.23 0 0 0 1.18-.21 1 1 0 0 1 1.14-.14 1 1 0 0 0 1.13-.29 2.83 2.83 0 0 1 2.35-1c.84 0 1.23-.44 1.33-1.32s.11-1.94.16-2.91a.65.65 0 0 1 .63-.68c.41-.05.82-.12 1.24-.13 2.71-.07 5.41-.13 8.12-.18a9.15 9.15 0 0 1 1.66.13 1.93 1.93 0 0 1 1.71 1.59A14.72 14.72 0 0 1 465 135a73.29 73.29 0 0 1-.58 8.06ZM246.1 56.94a1.78 1.78 0 0 0-2.26-1.56 13.9 13.9 0 0 0-2.31.92 21.51 21.51 0 0 1-4.91 1.7 71.48 71.48 0 0 1-8.32 1.24c.17-2 .32-3.81.46-5.6.12-1.62 0-1.81-1.63-2.28a1.16 1.16 0 0 1-.38-.15 1.42 1.42 0 0 0-2.18.31c-.4.47-.71.39-1.21 0a1.18 1.18 0 0 0-1.92.69 5 5 0 0 0-.16 1c-.15 1.67-.27 3.33-.45 5-.13 1.21-.21 1.29-1.4 1.22-3.47-.2-6.93-.44-10.4-.67a7.35 7.35 0 0 0-1.24 0 1.55 1.55 0 0 0-1.45 1.28 7.75 7.75 0 0 0-.07 1.45 52.3 52.3 0 0 1-4.14 20.9c-.88 2.11-1.77 4.22-2.61 6.35a19.41 19.41 0 0 0-.93 3 6.56 6.56 0 0 0 3.57 7.67 9.66 9.66 0 0 0 2.72 1c1.64.31 3.27.63 4.9 1a63.21 63.21 0 0 0 13.64 1.59 13.16 13.16 0 0 1 1.66.06 18.47 18.47 0 0 0 4.58-.15 8 8 0 0 0 6.65-4.69 24.55 24.55 0 0 0 1.77-5.11c1.13-5 2.27-10 3.31-15a129.21 129.21 0 0 1 3.3-13.55c.46-1.45.82-2.94 1.15-4.43a8.52 8.52 0 0 0 .26-3.19Zm-3.26 4.45c-.75 2.74-1.63 5.46-2.28 8.22-1 4.46-1.93 9-2.9 13.43-.68 3.12-1.37 6.24-2.09 9.35a26.23 26.23 0 0 1-1.57 4.52 5.51 5.51 0 0 1-4.63 3.39 10.36 10.36 0 0 1-1.25.1 73.24 73.24 0 0 1-15.15-1c-2-.4-4.09-.76-6.13-1.17a12.52 12.52 0 0 1-3.37-1 4.06 4.06 0 0 1-2.33-5 23.53 23.53 0 0 1 1.27-3.74q1.14-2.79 2.3-5.58a48.87 48.87 0 0 0 4-20.7 3 3 0 0 1 .07-.49h4.09c2.22.11 4.44.28 6.66.45.75.06.88.27.82 1.1s-.14 1.8-.16 2.71a3.3 3.3 0 0 0 .15 1.22 1.29 1.29 0 0 0 2 .73c.34-.23.65-.51 1-.78a4.43 4.43 0 0 0 .28 1c.54 1.07 1.71 1.22 2.31.23 1-1.64 2.21-3.19 2.12-5.3 0-1 .08-1 1-1.18 2.19-.35 4.39-.7 6.58-1a23.78 23.78 0 0 0 6.55-2 1.75 1.75 0 0 1 1.25-.26 15.83 15.83 0 0 1-.59 2.75Z"/><path fill="#030202" d="m381.64 76.58 1.86-1.28a4.33 4.33 0 0 1 1.9-.79 2.41 2.41 0 0 1 2.82 2.34 1.36 1.36 0 0 1-.75 1.36 1.26 1.26 0 0 1-1.33-.31c-.8-.69-.82-.67-1.49-.23l-.67.49c-.23.15-.46.31-.7.45a2.81 2.81 0 0 1-3.77-.44l-.65-.71c-.58 0-.74.46-1 .73a16.09 16.09 0 0 1-1.38 1.24 1.85 1.85 0 0 1-2.63-.17 4.21 4.21 0 0 0-.94-.77c-1.36-.63-1.35-.67-1-2a9.21 9.21 0 0 1 .43-1.38 1.29 1.29 0 0 1 2.22-.17 3.44 3.44 0 0 1 .41.94 1.35 1.35 0 0 0 .64.87c.49-.54 1-1.12 1.51-1.66 1.19-1.2 2.21-1.17 3.36.09.33.41.68.82 1.16 1.4Z"/><path fill="#030303" d="M365.77 78.48a13 13 0 0 1-1.49 1.68 2 2 0 0 1-3.34-.81 2.72 2.72 0 0 0-1.2-1.57.82.82 0 0 1-.36-.72 9.34 9.34 0 0 1 .21-2.89 1.17 1.17 0 0 1 1-1 1.36 1.36 0 0 1 1.42.67 9.93 9.93 0 0 1 .78 2.57c.06.2.09.41.15.61a.4.4 0 0 0 .66.11c.39-.39.74-.83 1.15-1.2 1.28-1.14 2.57-.93 3.45.57a17.87 17.87 0 0 1 .9 1.87c.3.64.63 1.25 1.47 1.28a.82.82 0 0 1 .38.15 1.14 1.14 0 0 1 .11 1.92 2.15 2.15 0 0 1-3.14-.35 18.41 18.41 0 0 1-1.1-1.75c-.23-.29-.23-.77-1.05-1.14Z"/><path fill="#020101" d="M445.64 153.21a15.22 15.22 0 0 1-1.38 1.3c-2 1.46-4 1.2-5.1-.88-.16-.31-.35-.6-.52-.88-.59 0-.79.5-1.13.8a5.37 5.37 0 0 1-1.52 1.07 2 2 0 0 1-2.67-.92 9.7 9.7 0 0 1-.92-5.06 1.19 1.19 0 0 1 1-1.13 1.24 1.24 0 0 1 1.24.91 3.66 3.66 0 0 1 .25 1.43 9.78 9.78 0 0 0 .16 1.43.44.44 0 0 0 .79.19c.39-.39.75-.82 1.16-1.19a2.05 2.05 0 0 1 3.38.31c.37.5.62 1.08.94 1.61s.84.71 1.36.21a9.91 9.91 0 0 0 1.06-1.27c.29-.39.5-.84.8-1.22a1.51 1.51 0 0 1 2.7.16c.34.51.38 1.19.91 1.59.49 0 .74-.35 1.05-.61.47-.41.9-.87 1.4-1.25a2.32 2.32 0 0 1 2.72-.27 1.08 1.08 0 0 1 .19.08c1.43 1.29 3.09 1 4.74.69.55-.1 1.08-.26 1.63-.33a4.29 4.29 0 0 1 1.24 0 1.22 1.22 0 0 1 .94 1.21 1.06 1.06 0 0 1-.81 1.09 28.74 28.74 0 0 1-5.74.92 4.86 4.86 0 0 1-2.53-.86c-.82-.5-.84-.47-1.6.2-.47.41-.91.87-1.41 1.23-1.46 1.05-2.84 1.08-3.87-.25a2 2 0 0 0-.46-.31Z"/><path fill="#050404" d="M228.29 79.86a6 6 0 0 1-3.48-.8 1.25 1.25 0 0 0-1.67.08 2.17 2.17 0 0 1-.73.36 1.64 1.64 0 0 1-2.1-.84 8.81 8.81 0 0 1-.5-1.13 1.31 1.31 0 0 1 .36-1.51 1 1 0 0 1 1.49 0 1.07 1.07 0 0 0 1.43.22 2.29 2.29 0 0 1 2.37.22 5.09 5.09 0 0 0 3.77.64 3.29 3.29 0 0 1 .62-.08 1.41 1.41 0 0 1 1.42 1 1.32 1.32 0 0 1-.86 1.47 4.9 4.9 0 0 1-2.12.37Z"/><path fill="#040404" d="M214.91 79.64a17.17 17.17 0 0 1-1.33 1.22A1.58 1.58 0 0 1 211 80a20.79 20.79 0 0 1-.43-2.25 1.28 1.28 0 0 1 .64-1.41c.45-.27.93-.14 1.46.41a6.23 6.23 0 0 1 .5.71 5.06 5.06 0 0 0 .53-.29 2 2 0 0 1 2.67.15 5.42 5.42 0 0 0 2.48 1.37c.84.17.92 1.48.18 2a2 2 0 0 1-2.34.16c-.62-.36-1.16-.78-1.78-1.21Z"/></g></svg>