<svg width="33" height="54" viewBox="0 0 33 54" fill="none" xmlns="http://www.w3.org/2000/svg">
  <path d="M15.0524 33.0068C14.9756 33.1602 14.887 33.2486 14.7926 33.2545C14.7631 33.2545 14.7394 33.2545 14.704 33.2545C12 33.1956 7.23541 19.2632 0.369017 20.0595C0.292265 20.0595 0.221413 20.0772 0.144661 20.0831C0.144661 20.0831 6.66862 16.9804 9.95717 18.6792C15.0583 21.3218 15.8553 31.3021 15.0465 33.0009L15.0524 33.0068Z" fill="url(#paint0_linear_215_10491)"/>
  <path d="M15.0524 33.0069C14.9756 33.1603 14.887 33.2488 14.7926 33.2547C14.7631 33.2547 14.7394 33.2547 14.704 33.2547C12 33.1957 7.23541 19.2633 0.369011 20.0596C0.369011 20.0596 7.93799 17.0632 11.4981 23.1976C13.7594 27.0907 14.6745 30.8068 15.0524 33.001V33.0069Z" fill="#73A2FD"/>
  <path d="M15.2057 41.6775C15.2057 41.6775 15.1998 41.6775 15.1939 41.6775C15.0994 41.6775 15.0344 41.5949 15.0403 41.5005C15.0522 41.2823 16.3215 21.1505 5.38723 19.6464C5.29867 19.6346 5.23374 19.552 5.24554 19.4577C5.25735 19.3692 5.34001 19.2984 5.43448 19.3161C16.6699 20.8615 15.3887 41.3 15.371 41.5241C15.371 41.6126 15.2942 41.6775 15.2057 41.6775V41.6775Z" fill="#73A2FD"/>
  <path d="M32.9997 24.8556C32.9997 24.8556 32.9997 24.8556 32.9761 24.8497C26.0388 23.7998 21.227 37.8383 18.4994 38.0212C18.4521 38.0271 18.4108 38.0271 18.3754 38.0212C18.3223 38.0212 18.275 37.9917 18.2337 37.9445C17.2477 36.9476 17.8854 26.2123 23.2108 23.4635C26.399 21.8178 32.6455 24.6904 32.9997 24.8615V24.8556Z" fill="url(#paint1_linear_215_10491)"/>
  <path d="M32.9763 24.8496C26.0391 23.7997 21.2273 37.8382 18.4996 38.0211C18.4524 38.027 18.4111 38.027 18.3756 38.0211C18.3225 38.0211 18.2753 37.9916 18.234 37.9444C18.7063 35.5142 19.5624 30.5712 22.4317 27.0557C26.293 22.3191 32.5276 24.6904 32.9763 24.8496V24.8496Z" fill="#73A2FD"/>
  <path d="M17.9563 46.4443C17.8678 46.4443 17.7969 46.3794 17.791 46.291C17.7792 46.0668 16.4921 25.6283 27.7275 24.0829C27.822 24.0652 27.9046 24.136 27.9164 24.2245C27.9283 24.313 27.8633 24.4014 27.7748 24.4132C16.8464 25.9174 18.1098 46.0491 18.1216 46.2674C18.1276 46.3618 18.0567 46.4384 17.9681 46.4443C17.9681 46.4443 17.9622 46.4443 17.9563 46.4443Z" fill="#73A2FD"/>
  <path d="M15.6606 23.8824V23.9001C15.6547 23.9473 15.6488 23.965 15.6488 23.965C15.6488 23.965 15.6192 23.9414 15.5602 23.8942C15.0052 23.3987 11.8347 20.3492 10.3174 13.3004C8.20377 3.54419 4.43109 1.30864 4.19493 1.17887C4.18902 1.17297 4.18311 1.17298 4.18311 1.17298L3.96466 1.0609C4.04141 1.04321 4.11226 1.03141 4.18311 1.01961C9.45541 0.0463511 13.4466 2.60632 14.9698 8.72312C16.6524 15.5124 15.7727 23.0153 15.6606 23.8824V23.8824Z" fill="url(#paint2_linear_215_10491)"/>
  <path d="M15.5601 23.8951C15.0051 23.3996 11.8347 20.35 10.3173 13.3013C8.20367 3.54507 4.43099 1.30952 4.19483 1.17975C4.54907 1.23873 11.5454 2.63669 13.4524 10.6941C14.8929 16.7814 15.3948 21.7185 15.5601 23.8951Z" fill="#73A2FD"/>
  <path d="M16.3686 45.4416C16.2742 45.4416 16.2033 45.3649 16.2033 45.2764V45.1584C16.3332 41.112 17.1539 7.08918 7.63068 2.913C7.54802 2.87761 7.50668 2.77734 7.54801 2.69476C7.58344 2.61218 7.6838 2.57679 7.76646 2.61218C17.2838 6.78835 16.7465 38.5403 16.5399 45.1761V45.2882C16.5399 45.3826 16.4631 45.4534 16.3686 45.4534V45.4416Z" fill="#73A2FD"/>
  <path d="M29.3454 5.65669L29.2981 5.68029L29.1151 5.76877C29.1151 5.76877 25.1771 7.82146 22.9926 17.9021C21.3572 25.464 17.8325 28.4251 17.6613 28.5549C17.6613 28.5313 17.6436 28.4487 17.6318 28.313C17.4605 26.8974 16.7343 19.7896 18.3343 13.3189C19.8753 7.13133 23.9491 4.58316 29.31 5.65669H29.3454V5.65669Z" fill="url(#paint3_linear_215_10491)"/>
  <path d="M29.31 5.65656C29.31 5.65656 29.31 5.66245 29.2982 5.68015L29.1152 5.76863C29.1152 5.76863 25.1772 7.82133 22.9927 17.902C21.3573 25.4639 17.8326 28.425 17.6614 28.5547C17.6614 28.5311 17.6436 28.4486 17.6318 28.3129C18.7359 18.4741 20.4835 13.6019 22.0658 10.5818C24.02 6.84806 29.31 5.66245 29.31 5.66245V5.65656Z" fill="#73A2FD"/>
  <path d="M16.8644 45.8361C16.77 45.8361 16.6991 45.7595 16.6991 45.671C16.6342 34.8294 17.3604 10.7928 25.5434 7.20062C25.626 7.16523 25.7264 7.20062 25.7618 7.2832C25.7972 7.36578 25.7618 7.46606 25.6791 7.50145C17.6733 11.017 16.9648 34.8884 17.0356 45.6651C17.0356 45.7595 16.9648 45.8302 16.8703 45.8302L16.8644 45.8361Z" fill="#73A2FD"/>
  <path d="M10.3473 41.3114L10.4477 42.5029L11.3687 52.9138C11.4159 53.4801 11.8823 53.9166 12.455 53.9225L21.3052 53.9992C21.8779 53.9992 22.3561 53.5745 22.4093 53.0082L23.407 43.6413V43.6236L23.6432 41.4235L10.3473 41.3055V41.3114Z" fill="url(#paint4_linear_215_10491)"/>
  <g style="mix-blend-mode:multiply">
  <path d="M10.4473 42.5032L11.3683 52.9141C11.4156 53.4804 11.882 53.9169 12.4547 53.9228L16.6643 53.9582C12.8385 52.4363 11.9056 49.0388 12.679 46.4375C13.5233 43.618 22.4502 43.6357 23.4008 43.6416C23.4539 43.6416 23.4834 43.6416 23.4834 43.6416L23.4008 43.6239L14.9344 41.8425L10.4414 42.4973L10.4473 42.5032Z" fill="#DBE7EE"/>
  </g>
  <path d="M23.9937 43.6966L9.94265 43.5741C9.70059 43.572 9.50747 43.3757 9.50958 43.1338L9.52169 41.7477C9.5238 41.5059 9.72032 41.313 9.96238 41.3151L24.0135 41.4376C24.2555 41.4397 24.4486 41.636 24.4465 41.8779L24.4344 43.264C24.4323 43.5058 24.2358 43.6987 23.9937 43.6966Z" fill="url(#paint5_linear_215_10491)"/>
  <defs>
  <linearGradient id="paint0_linear_215_10491" x1="7.73726" y1="21.5282" x2="7.73726" y2="27.9517" gradientUnits="userSpaceOnUse">
  <stop stop-color="#8AD3FF"/>
  <stop offset="1" stop-color="#5F9CFF"/>
  </linearGradient>
  <linearGradient id="paint1_linear_215_10491" x1="25.4189" y1="23.9118" x2="25.4189" y2="34.2461" gradientUnits="userSpaceOnUse">
  <stop stop-color="#8AD3FF"/>
  <stop offset="1" stop-color="#5F9CFF"/>
  </linearGradient>
  <linearGradient id="paint2_linear_215_10491" x1="13.9661" y1="6.46987" x2="11.2773" y2="10.383" gradientUnits="userSpaceOnUse">
  <stop stop-color="#8AD3FF"/>
  <stop offset="1" stop-color="#5F9CFF"/>
  </linearGradient>
  <linearGradient id="paint3_linear_215_10491" x1="23.3351" y1="7.21981" x2="23.3351" y2="23.1223" gradientUnits="userSpaceOnUse">
  <stop stop-color="#8AD3FF"/>
  <stop offset="1" stop-color="#5F9CFF"/>
  </linearGradient>
  <linearGradient id="paint4_linear_215_10491" x1="23.6432" y1="47.6582" x2="10.3473" y2="47.6582" gradientUnits="userSpaceOnUse">
  <stop stop-color="#E2F4FF"/>
  <stop offset="1" stop-color="#D7ECFF"/>
  </linearGradient>
  <linearGradient id="paint5_linear_215_10491" x1="24.4417" y1="42.5242" x2="9.5104" y2="42.5242" gradientUnits="userSpaceOnUse">
  <stop stop-color="#294698"/>
  <stop offset="1" stop-color="#0E4BA6"/>
  </linearGradient>
  </defs>
</svg>