<svg xmlns="http://www.w3.org/2000/svg" viewBox="0 0 512 512">
  <path fill="#ff0052" d="M256 0C114.5 0 0 114.5 0 256s114.5 256 256 256 256-114.5 256-256S397.5 0 256 0zm0 472c-119.4 0-216-96.6-216-216S136.6 40 256 40s216 96.6 216 216-96.6 216-216 216z"></path>
  <path className="close-1" fill="white" d="M343.6 315.3L284.3 256l59.3-59.3c7.8-7.8 7.8-20.5 0-28.3-7.8-7.8-20.5-7.8-28.3 0L256 227.7l-59.3-59.3c-7.8-7.8-20.5-7.8-28.3 0s-7.8 20.5 0 28.3l59.3 59.3-59.3 59.3c-7.8 7.8-7.8 20.5 0 28.3 7.8 7.8 20.5 7.8 28.3 0l59.3-59.3 59.3 59.3c7.8 7.8 20.5 7.8 28.3 0s7.8-20.5 0-28.3z"></path>
</svg>