<svg viewBox="12 45 478 250" fill="none" xmlns="http://www.w3.org/2000/svg">
      <path d="M254.5 227H136.194a9.996 9.996 0 01-5.797-1.852l-5.578-3.968a5 5 0 01-.637-7.61l17.318-17.318"
          stroke="url(#sponsor_svg__paint0_linear)" stroke-width="3.5"></path>
      <path d="M228 289.5l17.87-40.534a9.999 9.999 0 019.15-5.966h15.092a5.001 5.001 0 004.331-2.501l6.057-10.498"
          stroke="url(#sponsor_svg__paint1_linear)" stroke-width="3.5"></path>
      <path d="M310.314 75.179l-12.882 20.585a10 10 0 01-10.077 4.566l-14.78-2.395a5 5 0 00-4.675 1.776l-7.658 9.394"
          stroke="url(#sponsor_svg__paint2_linear)" stroke-width="3.5"></path>
      <path d="M314.5 80H196.194a10 10 0 00-5.797 1.852l-5.578 3.968a5 5 0 00-.637 7.61l17.318 17.318"
          stroke="url(#sponsor_svg__paint3_linear)" stroke-width="3.5"></path>
      <path d="M0 152h118.306a9.996 9.996 0 005.797-1.852l5.578-3.968a5 5 0 00.637-7.61L113 121.252"
          stroke="url(#sponsor_svg__paint4_linear)" stroke-width="3.5"></path>
      <path
          d="M105.5 279l16.568-17.582c4.182-4.438 3.452-11.554-1.543-15.051l-30.76-21.532c-5.094-3.566-5.734-10.866-1.337-15.263l40.108-40.108a5 5 0 013.535-1.464H149"
          stroke="url(#sponsor_svg__paint5_linear)" stroke-width="3.5"></path>
      <path
          d="M121 2l41.901 43.577c4.255 4.425 3.556 11.604-1.473 15.124l-30.663 21.464c-5.094 3.566-5.734 10.866-1.337 15.263l40.108 40.108a5 5 0 003.535 1.464H190"
          stroke="url(#sponsor_svg__paint6_linear)" stroke-width="3.5"></path>
      <path
          d="M388 268l-41.901-43.577c-4.255-4.425-3.556-11.603 1.473-15.124l30.663-21.464c5.094-3.566 5.734-10.866 1.337-15.263l-40.108-40.108a5 5 0 00-3.535-1.464H319"
          stroke="url(#sponsor_svg__paint7_linear)" stroke-width="3.5"></path>
      <path
          d="M478 183h-51.567a10 10 0 01-7.41-3.285l-51.679-57.025a19.998 19.998 0 00-8.027-5.381l-19.413-7.01c-6.074-2.194-8.507-9.484-4.968-14.886L347 77"
          stroke="url(#sponsor_svg__paint8_linear)" stroke-width="3.5"></path>
      <circle r="4.5" transform="matrix(1 0 0 -1 144.5 193.5)" fill="#86CD74"></circle>
      <circle cx="204.5" cy="113.5" r="4.5" fill="#86CD74"></circle>
      <circle cx="110" cy="118.5" r="4.5" transform="rotate(-180 110 118.5)" fill="#86CD74"></circle>
      <circle r="4.5" transform="matrix(1 0 0 -1 144.5 168.5)" fill="#86CD74"></circle>
      <circle cx="185.5" cy="138.5" r="4.5" fill="#86CD74"></circle>
      <circle cx="323.5" cy="131.5" r="4.5" transform="rotate(-180 323.5 131.5)" fill="#86CD74"></circle>
      <circle cx="280.5" cy="229.5" r="4.5" transform="rotate(-180 280.5 229.5)" fill="#86CD74"></circle>
      <circle cx="260.162" cy="109.599" r="4.5" transform="rotate(9.205 260.162 109.599)" fill="#86CD74"></circle>
      <circle cx="346.5" cy="79.5" r="4.5" transform="rotate(-180 346.5 79.5)" fill="#86CD74"></circle>
      <defs>
          <linearGradient id="sponsor_svg__paint0_linear" x1="133" y1="227" x2="217" y2="227"
              gradientUnits="userSpaceOnUse">
              <stop stop-color="#86CD74"></stop>
              <stop offset="1" stop-color="#312F3F" stop-opacity="0"></stop>
          </linearGradient>
          <linearGradient id="sponsor_svg__paint1_linear" x1="278.5" y1="230" x2="235.5" y2="285.5"
              gradientUnits="userSpaceOnUse">
              <stop stop-color="#86CD74"></stop>
              <stop offset="1" stop-color="#312F3F" stop-opacity="0"></stop>
          </linearGradient>
          <linearGradient id="sponsor_svg__paint2_linear" x1="262.216" y1="109.426" x2="297.762" y2="80.743"
              gradientUnits="userSpaceOnUse">
              <stop stop-color="#86CD74"></stop>
              <stop offset="1" stop-color="#312F3F" stop-opacity="0"></stop>
          </linearGradient>
          <linearGradient id="sponsor_svg__paint3_linear" x1="200" y1="111" x2="268.5" y2="111"
              gradientUnits="userSpaceOnUse">
              <stop stop-color="#86CD74"></stop>
              <stop offset="1" stop-color="#312F3F" stop-opacity="0"></stop>
          </linearGradient>
          <linearGradient id="sponsor_svg__paint4_linear" x1="114.5" y1="121" x2="-0.5" y2="121"
              gradientUnits="userSpaceOnUse">
              <stop stop-color="#86CD74"></stop>
              <stop offset="1" stop-color="#312F3F" stop-opacity="0"></stop>
          </linearGradient>
          <linearGradient id="sponsor_svg__paint5_linear" x1="114.5" y1="168" x2="115" y2="291"
              gradientUnits="userSpaceOnUse">
              <stop stop-color="#86CD74"></stop>
              <stop offset="1" stop-color="#312F3F" stop-opacity="0"></stop>
          </linearGradient>
          <linearGradient id="sponsor_svg__paint6_linear" x1="155.5" y1="139" x2="156" y2="31"
              gradientUnits="userSpaceOnUse">
              <stop stop-color="#86CD74"></stop>
              <stop offset="1" stop-color="#312F3F" stop-opacity="0"></stop>
          </linearGradient>
          <linearGradient id="sponsor_svg__paint7_linear" x1="353.5" y1="131" x2="375" y2="257.5"
              gradientUnits="userSpaceOnUse">
              <stop stop-color="#86CD74"></stop>
              <stop offset="1" stop-color="#312F3F" stop-opacity="0"></stop>
          </linearGradient>
          <linearGradient id="sponsor_svg__paint8_linear" x1="341" y1="76" x2="449" y2="183"
              gradientUnits="userSpaceOnUse">
              <stop stop-color="#86CD74"></stop>
              <stop offset="1" stop-color="#312F3F" stop-opacity="0"></stop>
          </linearGradient>
      </defs>
  </svg>