<svg xmlns="http://www.w3.org/2000/svg"  viewBox="0 0 64 64" width="64px" height="64px"><linearGradient id="EaeMurhDa9u3c~59Ov5DQa" x1="29" x2="29" y1="31.5" y2="38.5" gradientUnits="userSpaceOnUse" spreadMethod="reflect"><stop offset="0" stop-color="#6dc7ff"/><stop offset="1" stop-color="#e6abff"/></linearGradient><path fill="url(#EaeMurhDa9u3c~59Ov5DQa)" d="M32,37c0,0.552-0.448,1-1,1h-4c-0.552,0-1-0.448-1-1v-4c0-0.552,0.448-1,1-1h4 c0.552,0,1,0.448,1,1V37z"/><linearGradient id="EaeMurhDa9u3c~59Ov5DQb" x1="29" x2="29" y1="7.167" y2="58.176" gradientUnits="userSpaceOnUse" spreadMethod="reflect"><stop offset="0" stop-color="#1a6dff"/><stop offset="1" stop-color="#c822ff"/></linearGradient><path fill="url(#EaeMurhDa9u3c~59Ov5DQb)" d="M48,34h-4c-1.103,0-2,0.897-2,2v12H16V22h12c1.103,0,2-0.897,2-2v-4c0-1.103-0.897-2-2-2H13 c-2.757,0-5,2.243-5,5v32c0,2.757,2.243,5,5,5h32c2.757,0,5-2.243,5-5V36C50,34.897,49.103,34,48,34z M48,51c0,1.654-1.346,3-3,3H13 c-1.654,0-3-1.346-3-3V19c0-1.654,1.346-3,3-3h15v4H16c-1.103,0-2,0.897-2,2v26c0,1.103,0.897,2,2,2h26c1.103,0,2-0.897,2-2V36h4V51 z"/><linearGradient id="EaeMurhDa9u3c~59Ov5DQc" x1="46" x2="46" y1="7.167" y2="58.176" gradientUnits="userSpaceOnUse" spreadMethod="reflect"><stop offset="0" stop-color="#1a6dff"/><stop offset="1" stop-color="#c822ff"/></linearGradient><path fill="url(#EaeMurhDa9u3c~59Ov5DQc)" d="M51,8H38c-1.103,0-2,0.897-2,2v4c0,1.103,0.897,2,2,2h10v10c0,1.103,0.897,2,2,2h4 c1.103,0,2-0.897,2-2V13C56,10.243,53.757,8,51,8z M54,26h-4V16c0-1.103-0.897-2-2-2H38v-4h13c1.654,0,3,1.346,3,3V26z"/><linearGradient id="EaeMurhDa9u3c~59Ov5DQd" x1="33" x2="33" y1="7.167" y2="58.176" gradientUnits="userSpaceOnUse" spreadMethod="reflect"><stop offset="0" stop-color="#1a6dff"/><stop offset="1" stop-color="#c822ff"/></linearGradient><path fill="url(#EaeMurhDa9u3c~59Ov5DQd)" d="M34,28H24c-1.103,0-2,0.897-2,2v10c0,1.103,0.897,2,2,2h10c1.103,0,2-0.897,2-2V30 c0-0.178-0.031-0.347-0.075-0.511L42,23.414V30h2v-8c0-1.103-0.897-2-2-2h-8v2h6.586l-6.075,6.074C34.347,28.031,34.178,28,34,28z M34,40H24V30h10V40z"/></svg>