<svg xmlns="http://www.w3.org/2000/svg" xmlns:xlink="http://www.w3.org/1999/xlink" width="2389" height="765"><defs><linearGradient x1="45.614%" y1="-2.833%" x2="13.272%" y2="100%" id="a"><stop stop-color="#FFF" stop-opacity=".64" offset="0%"/><stop stop-color="#FFF" stop-opacity="0" offset="100%"/></linearGradient><filter x="-.9%" y="-.3%" width="101.9%" height="100.7%" filterUnits="objectBoundingBox" id="b"><feGaussianBlur stdDeviation="-0.5 -6.123234e-17" in="SourceGraphic"/></filter><circle id="c" cx="48" cy="48" r="48"/><filter x="0%" y="0%" width="100%" height="100%" filterUnits="objectBoundingBox" id="d"><feGaussianBlur in="SourceGraphic"/></filter><filter x="-16.7%" y="-16.7%" width="133.3%" height="133.3%" filterUnits="objectBoundingBox" id="e"><feGaussianBlur stdDeviation="16" in="SourceAlpha" result="shadowBlurInner1"/><feOffset in="shadowBlurInner1" result="shadowOffsetInner1"/><feComposite in="shadowOffsetInner1" in2="SourceAlpha" operator="arithmetic" k2="-1" k3="1" result="shadowInnerInner1"/><feColorMatrix values="0 0 0 0 0.2 0 0 0 0 0.505882353 0 0 0 0 1 0 0 0 1 0" in="shadowInnerInner1"/></filter><radialGradient cx="48.392%" cy="0%" fx="48.392%" fy="0%" r="117.062%" gradientTransform="scale(-1 -.84319) rotate(-86.229 0 .517)" id="f"><stop stop-color="#0062FF" stop-opacity="0" offset="0%"/><stop stop-color="#0062FF" stop-opacity=".32" offset="68.708%"/><stop stop-color="#00C2BE" offset="100%"/></radialGradient><filter x="0%" y="0%" width="100%" height="100%" filterUnits="objectBoundingBox" id="g"><feGaussianBlur in="SourceGraphic"/></filter><radialGradient cx="47.914%" cy=".603%" fx="47.914%" fy=".603%" r="110.819%" gradientTransform="scale(-1 -.84319) rotate(-56.212 -.012 .897)" id="h"><stop stop-color="#0062FF" offset="0%"/><stop stop-color="#00F5F0" offset="36.832%"/><stop stop-color="#00F5F0" stop-opacity="0" offset="66.454%"/><stop stop-color="#00A7FF" stop-opacity=".24" offset="100%"/></radialGradient><filter x="0%" y="0%" width="100%" height="100%" filterUnits="objectBoundingBox" id="i"><feGaussianBlur in="SourceGraphic"/></filter><radialGradient cx="52.101%" cy="-25.108%" fx="52.101%" fy="-25.108%" r="112.467%" id="k"><stop stop-color="#00A7FF" stop-opacity=".24" offset="0%"/><stop stop-color="#00F5F0" stop-opacity=".72" offset="44.314%"/><stop stop-color="#00F5F0" stop-opacity="0" offset="100%"/></radialGradient><circle id="j" cx="199.723" cy="200.238" r="199.501"/><filter x="0%" y="0%" width="100%" height="100%" filterUnits="objectBoundingBox" id="l"><feGaussianBlur in="SourceGraphic"/></filter><linearGradient x1="88.451%" y1="97.066%" x2="48.181%" y2="39.462%" id="m"><stop stop-color="#00A7FF" offset="0%"/><stop stop-color="#0062FF" stop-opacity="0" offset="100%"/></linearGradient><radialGradient cx="48.392%" cy="0%" fx="48.392%" fy="0%" r="111.725%" gradientTransform="scale(-1 -.8427) rotate(-56.228 0 .906)" id="n"><stop stop-color="#00C2BE" stop-opacity="0" offset="0%"/><stop stop-color="#0062FF" offset="37.439%"/><stop stop-color="#0062FF" stop-opacity="0" offset="65.522%"/><stop stop-color="#111325" stop-opacity="0" offset="100%"/></radialGradient><filter x="-5%" y="-4.2%" width="110%" height="108.4%" filterUnits="objectBoundingBox" id="o"><feGaussianBlur stdDeviation="10" in="SourceGraphic"/></filter><circle id="p" cx="16" cy="16" r="16"/><filter x="0%" y="0%" width="100%" height="100%" filterUnits="objectBoundingBox" id="q"><feGaussianBlur in="SourceGraphic"/></filter><filter x="-18.8%" y="-18.8%" width="137.5%" height="137.5%" filterUnits="objectBoundingBox" id="r"><feGaussianBlur stdDeviation="6" in="SourceAlpha" result="shadowBlurInner1"/><feOffset in="shadowBlurInner1" result="shadowOffsetInner1"/><feComposite in="shadowOffsetInner1" in2="SourceAlpha" operator="arithmetic" k2="-1" k3="1" result="shadowInnerInner1"/><feColorMatrix values="0 0 0 0 0 0 0 0 0 0.384313725 0 0 0 0 1 0 0 0 1 0" in="shadowInnerInner1"/></filter><linearGradient x1="65.533%" y1="39.002%" x2="20.072%" y2="102.251%" id="s"><stop stop-color="#00F5F0" stop-opacity=".64" offset="0%"/><stop stop-color="#00A7FF" stop-opacity="0" offset="100%"/></linearGradient></defs><g fill="none" fill-rule="evenodd"><path d="M303.299 220.774c-2.02 28.062-6.027 56.073-13.073 83.35-3.558 13.618-7.873 27.062-13.46 39.956-2.784 6.444-5.91 12.742-9.481 18.759-3.583 6-7.603 11.756-12.33 16.832-4.714 5.049-10.197 9.454-16.465 12.064-3.135 1.258-6.437 2.102-9.79 2.257-3.35.166-6.727-.231-9.946-1.246-6.486-1.954-12.227-6.062-17.166-10.865-4.951-4.845-9.158-10.476-12.892-16.388-7.431-11.887-13.012-24.922-17.646-38.222-4.613-13.33-8.21-27.016-11.131-40.837-5.788-27.668-8.893-55.885-10.015-84.137-1.083-28.26-.233-56.6 2.815-84.686 1.534-14.04 3.62-28.017 6.412-41.846 2.784-13.828 6.257-27.517 10.69-40.881 4.464-13.337 9.85-26.416 16.99-38.483 3.595-6.003 7.63-11.761 12.384-16.85 4.746-5.056 10.268-9.497 16.63-12.115 3.635-1.461 6.53-2.011 8.463-2.29.966-.167 1.7-.21 2.189-.286.489-.07.735-.135.735-.192-.001-.057-.25-.104-.747-.141-.5-.031-1.25-.086-2.247-.003-1.988.109-5.007.557-8.744 2.043-6.56 2.67-12.207 7.19-17.045 12.308-4.847 5.149-8.946 10.958-12.598 17.005-7.254 12.15-12.72 25.289-17.264 38.675-4.51 13.413-8.056 27.142-10.91 41.006-2.862 13.865-5.015 27.877-6.617 41.949-3.183 28.15-4.164 56.553-3.206 84.892.998 28.333 3.985 56.649 9.682 84.478 2.878 13.903 6.435 27.687 11.033 41.152 4.622 13.439 10.199 26.644 17.735 38.82 3.789 6.059 8.076 11.87 13.213 16.954 2.57 2.535 5.356 4.877 8.395 6.889 3.029 2.02 6.334 3.687 9.858 4.778a31.182 31.182 0 0 0 10.938 1.453c3.708-.127 7.35-1.045 10.768-2.39 6.844-2.783 12.645-7.454 17.586-12.684 4.948-5.267 9.1-11.172 12.79-17.301 3.67-6.147 6.873-12.548 9.718-19.086 5.707-13.08 10.089-26.665 13.706-40.413 7.152-27.536 11.204-55.762 13.223-84.053.956-13.68 1.023-23.971.849-30.823-.182-6.854-.618-10.276-.998-10.276-.413-.001-.77 3.415-1.184 10.233-.422 6.817-.89 17.038-1.847 30.64" filter="url(#b)" transform="rotate(-59 1262.8 -1005.539)" fill="url(#a)"/><g filter="url(#d)"><use filter="url(#e)" xlink:href="#c" opacity=".16" fill="#000" transform="translate(614.837 668.992)"/></g><path d="M454 820.585c165.685 0 300-134.315 300-300s-255.488-620.379-300-300-300 134.315-300 300 134.315 300 300 300z" filter="url(#i)" transform="rotate(-37 472.675 -1582.476)" fill="url(#h)" fill-opacity=".32"/><use fill="url(#m)" filter="url(#l)" xlink:href="#j" transform="translate(1688.837 156.992)"/><ellipse cx="200.223" cy="200.238" rx="200" ry="199.501" transform="translate(1437.837 171.992)" fill="url(#m)"/><g filter="url(#q)"><use filter="url(#r)" xlink:href="#p" opacity=".16" fill="#000" transform="translate(1439.837 105.992)"/></g><path d="M1582.91-12.78c-2.006-.734-6.265-.117-6.801-1.747.163-2.394 8.44-.771 6.802 1.748zm55.987 9.155c3.106-1.146 7.71 5.137 5.72 6.948-2.76-1.803-3.697-4.68-5.72-6.948zm48.005 15.275c2.6-.25 1.44 4.959-1.207 2.987-.324-1.869 1.283-1.421 1.207-2.987zm175.951 34.08c-1.803 2.538-4.898 3.507-8.652 3.691.787-3.476 5.587-5.702 8.652-3.69zm-369.26-62.027c-.379 3.229-3.032 3.661-6.666 2.948.942-2.219-2.176-1.91-.658-4.495 3.866.192 4.78-.231 7.323 1.547zm197.961 36.79c-1.601 2.075-3.722 3.468-5.53 5.289-4.302-1.582 1.76-8.595 5.53-5.289zm-207.602-33.782c2.726.678 3.345 2.549 4.185 4.32a471.11 471.11 0 0 1-4.546-1.035c.126-1.089.24-2.184.361-3.285zm321.065 65.32c-.167 3.257-6.002.83-4.955-1.605 1.087-.671 5.197-.207 4.955 1.605zm8.233 3.037c.407 2.302-2.11 1.027-3.627 1 .038 2.71 2.685 3.814 3.01 6.34-.569.517-1.112 1.04-1.288 2.047-1.427.911-5.687.308-6.664-.932 1.167-3.24.823-5.55-1.19-6.837 2.332-1.642 5.537-2.259 9.759-1.618zm-33.488-5.684c-.605 2.784-5.065 4.073-6.94 2.619.958-2.518 3.526-3.09 6.94-2.619zm97.179 20.079c1.826.187 3.578.432 4.314 1.31-.998 1.937-3.638 1.885-5.806 2.414-.142-2.025 1.218-2.215 1.492-3.724zm-81.51-13.852c-2.728 2.486-7.635 2.341-12.765 1.9 2.05-3.313 7.09-2.988 12.764-1.9zm-276.795-49.84c-.444 3.134-1.803 5.162-5.308 4.564.718-2.807 1.777-5.194 5.308-4.564zm218.115 42.952c3.6 1.266 6.494 2.953 6.815 6.03-2.849.12-6.828-2.574-6.815-6.03zm131.2 26.42c-2.506 6.053-15.96-1.155-18.305 5.132-2.515-.413-2.082-2.572-1.797-4.677 7.186.889 15.15-1.363 20.103-.455z" fill="#FFF" fill-opacity=".24"/><path d="M1880.207 469.368c-.133.148-.268.303-.415.173l-3.257-.194c-.01-.295-.749-.955-1.19-1.36-.318-1.497-.013-3.184-.027-3.675-.045.018-.072.025-.15.056-.128-.366-.095-.665-.222-1.029-.12.048-.24.094-.284-.032-.086-.246.325-.262.195-.634-.175-.486-.47-.931-.552-1.178-.088-.247-.05-.537.318-.678-.093-.665-.911-3.415-.427-3.6l-.64-1.846c.486-.185.117-.464.357-.554.12-.046.286.027.613.18.515 1.474.705 5.586 1.321 8.552-.044.016-.033.07-.061.092 1.736-1.632 3.539-1.41 5.159.052.883.798 1.697 3.19 1.297 3.651-.267.304-.966.5-1.371.963-.272.312-.524.902-.664 1.06zm-35.174-11.974c.31.556.203 1.281-.337 1.898-.538.616-1.666.695-2.399.032-.589-.533-.922-1.66-.25-2.43.538-.615 1.65-.979 2.531-.183.151.133.296.268.455.683zm5.999-8.075c.446.403 1.033.933.358 1.71-.133.147-.68.479-1.26.232-.59-.532-.617-1.11-.215-1.569.272-.314.691-.481 1.117-.373zm5.156 29.73c.154.14.168.419.029.573-.402.464-.68.485-1.123.079-.148-.13-.029-.566.108-.72.268-.31.841-.069.986.067zm47.159 20.591c.697-.185.813-.633 1.554.032.593.535.901 1.085 1.203 1.642.457.684.63 1.393.817 2.39-1.324-1.203-2.534-2.838-3.574-4.064zm27.108-47.148c.223-.43.38-.873.437-1.332 1.32-.302 1.989.326 2.684.506-.406.395-.688.706-.86.94-.362.187-.652.385-.86.59-.708-.029-1.142-.316-1.401-.704zm-36.02 12.662c-.13-.243-.213-.762-.253-1.293.226.034.426.119.516.367.207.595-.11.438-.069.849-.067.016-.125.06-.193.077zm39.35-19.15c-.085-.247-.5-.648-.584-.892-.061-.167-.031-.37-.012-.577.215-.07.514-.18.599-.275.04-.047.073-.505.064-1.117l1.098-.93c1.255-.348 1.964.492 2.468 1.555-1.17.588-2.517 3.058-2.556 3.354.93 1.872 2.454.305 2.839 1.413.353 1.012-.75 1.972-2.1 2.723.3-.453.516-1.12.37-1.535-.668.482-1.18.887-1.618 1.256-.363-.566-1.057-.404-1.357-.907.352-.444.706-.663.958-.929.108.021.222.02.331-.024.136-.154.27-.31.124-.44-.049-.049-.1-.078-.153-.116.107-.462.013-1.177-.47-2.558zm-39.474 16.278c.048-.053.132-.035.228-.014-.113.301-.234.562-.372.775.02-.356.058-.663.144-.761zm58.6-33.651c.032.017.046.052.087.072-.02.016-.029.03-.043.042-.006-.045-.038-.07-.043-.114zm-16.09-10.773c-.17-.492.144-1.172.869-1.451.492-.189 1.306-.223 1.792-.41.488-.19.971-.372.801-.863-.476-1.37-3.11 1.159-4.176-.413.18-.39.48-.74 1.001-.975 1.09-.545 1.28-1.322 1.258-2.123.492-.259.882-.522 1.036-.834.827.35 1.826.73 2.333 2.19.691 1.984-.414 4.126-1.034 5.178-.231.033-.458.054-.692.145-.246.095-.398.432-.646.53-.969.371-2.2.008-2.541-.974zm1.448-7.472a3.675 3.675 0 0 1-.024-.444c.087.15.195.283.326.387l-.302.057zm-144.38 56.963c1.025.93.813 2.384-.262 3.61-1.211 1.39-3.519.409-4.403-.389-.59-.534.034-2.452-.26-2.724.13-.148.118-.44.252-.592 1.073-1.23 3.344-1.11 4.673.095zm79.444 21.966c.296.266.187.99-.079 1.3-.408.46-.954.79-1.4.392-.443-.4-.052-1.145.08-1.303.273-.31.837-.349 1.399-.389zm-.164 2.608c.145.129.009.283.009.283-.134.153-.693.2-.842.064-.148-.134-.156-.424-.026-.579.134-.148.536-.616 1.128-.086 0 0 .149.136.012.293l-.281.025zm-7.188-74.81c-.992-.076-1.856-.298-2.736-1.098-.44-.4-.736-.67-1.042-1.218-1.304-.625-3.012-1.076-4.346-2.28-.882-.792-1.635-1.746-1.417-3.206.803-.922 2.229-.739 3.536.176l6.921 5.971c.448.402.052 1.15-.22 1.46-.129.15-.41.174-.696.194zm25.12-51.109c.98-.211 2.268.122 3.675.022.147.133.044.859-.093 1.015-.98.213-2.673.338-3.558-.462-.146-.134-.293-.27-.024-.575zm7.695-36.29l-.018-.285c.27-.31.824-.633 1.115-.367.299.27.313.554.173.707-.397.461-.829.346-1.27-.054zm31.858 19.994c1.037.93.965 2.52.024 3.593-1.478 1.697-3.525.119-3.525.119-1.328-1.202-.803-2.105-.444-3.429.402-.457 1.093-.94 1.936-1.005.566-.043 1.423.188 2.009.722zm-105.713 82.084c.022.576.037.86-.234 1.167-.534.614-2.079.873-3.233.388-.445-.404-1.85-.303-2.294-.697-.145-.137-.162-.42-.31-.555 1.933-1.012 4.303-1.899 6.07-.303zm34.248-5.395c.445.394.61 1.111.213 1.565-.401.462-1.366.97-1.953.432-.3-.268-.636-1.392-.232-1.855.539-.613 1.531-.546 1.972-.142zm-63.003 35.593c.168.42.041.863-.096 1.017-.132.153-.681.484-.98.213-.292-.265-.317-.841-.317-.841.403-.46 1.105-.654 1.393-.389zm95.806-127.998c.133.787.27 1.572.568 2.427-.366.143-.753 1.405-1.597 2.15-.17-.49-1.923-.372-2.477-1.972-.257-.738-.011-3.201.84-3.527.485-.186 2.054 1.158 2.666.922zm3.402 16.524c-.215-.612.22-1.752.706-1.943.485-.187.898.214 1.394.443.133.782.477 1.769-.74 2.232-.608.235-1.141-.114-1.36-.732zm67.417 46.358c-.214-.614-.222-1.03.507-1.314.365-.139.772-.154 1.069.704.088.248-.111.462-.389.851-.855.33-1.018.25-1.187-.24zm-34.29-20.093c-.245.09-.45-.108-.7-.43.364-.141.65-.109 1.06-.131-.163.341-.24.514-.36.56zm-34.906-35.749c.17.496-.437.728-.804.871-.29-.447-.629-1.017-.798-1.509.123-.044.245-.097.365-.141.12-.048.12-.048.035-.289.652-.116.978.041 1.063.284.088.246.053.54.14.784zm-23.943 42.949c.13.37.138.785-.382 1.261-.087-.241-.214-.61-.257-.733-.17-.493-.136-.785.428-1.14.086.243.169.49.21.612zm-.688 20.197s.04.122-.204.215c-1.48-.685-3.241 1.388-4.167-.484 1.18-.177 1.594.223 2.445-.104.124-.052 1.838.127 1.926.373zm27.077-40.256c.087.242-.115.465-.356.555-.245.094-2.728.49-4.306-4.055.118-.048.113-.466.03-.709-.132-.369-.34-.566-.463-.521-.726-2.087-2.813-7.695-1.233-8.305 2.678-1.03 3.117 3.401 3.602 3.216-.076.168-.037.29.006.414 0 0 1.677 2.837 1.919 2.746l1.338 4.638c-.601.649-.1 1.294-.537 2.021z" fill="#252B45" fill-opacity=".48"/></g></svg>