<svg version="1.0" xmlns="http://www.w3.org/2000/svg"
 width="512.000000pt" height="419.000000pt" viewBox="0 0 512.000000 419.000000"
 preserveAspectRatio="xMidYMid meet">
<g transform="translate(0.000000,419.000000) scale(0.100000,-0.100000)"
fill="white" stroke="none">
<path d="M3646 4111 c-10 -11 -22 -49 -28 -93 -5 -40 -12 -75 -15 -78 -9 -10
-128 -31 -198 -36 l-70 -5 -40 56 c-21 31 -45 61 -52 67 -9 7 -35 -7 -98 -56
l-85 -67 40 -53 c35 -46 40 -60 40 -105 0 -41 -6 -61 -29 -94 -15 -23 -36 -57
-45 -74 -15 -30 -20 -33 -64 -32 -26 0 -68 4 -94 8 -40 6 -51 5 -68 -11 -21
-20 -25 -33 -39 -122 -12 -82 7 -102 111 -117 l78 -11 6 -37 c3 -20 12 -59 20
-88 8 -28 14 -71 14 -96 0 -44 -2 -47 -65 -96 -36 -28 -65 -55 -65 -59 0 -11
120 -162 129 -162 5 0 29 16 54 35 40 30 53 35 101 35 48 0 64 -6 117 -40 34
-22 66 -40 72 -40 5 0 8 -42 7 -97 -1 -54 -2 -104 -1 -110 2 -22 56 -42 133
-49 72 -6 77 -5 91 17 9 13 19 52 22 85 4 34 11 67 15 73 9 16 116 41 201 48
l66 5 49 -66 c27 -38 54 -64 61 -62 21 8 163 118 163 126 0 4 -18 30 -40 58
-34 43 -40 57 -40 99 0 37 6 57 26 84 14 19 35 51 45 72 l20 39 99 -4 c126 -4
135 3 150 116 11 74 10 79 -10 101 -16 17 -41 26 -98 34 -41 6 -76 12 -77 14
-7 11 -29 146 -32 198 l-5 66 67 52 66 52 -24 32 c-13 18 -41 56 -62 85 -22
28 -43 52 -48 52 -4 0 -29 -16 -54 -35 -40 -31 -53 -35 -105 -35 -48 0 -65 5
-98 29 -21 15 -53 34 -71 41 l-32 14 7 101 c8 122 2 131 -95 145 -90 13 -104
12 -123 -9z m176 -449 c77 -38 130 -92 167 -171 24 -51 26 -66 26 -186 0 -120
-2 -134 -27 -187 -35 -75 -95 -138 -165 -174 -56 -28 -63 -29 -198 -29 -131 0
-144 2 -196 26 -69 33 -129 91 -166 161 -25 48 -28 64 -31 183 -3 114 -1 137
17 186 22 59 80 132 132 170 65 46 126 59 254 57 113 -3 125 -5 187 -36z"/>
<path d="M2251 3958 c-109 -13 -290 -63 -400 -108 -339 -142 -609 -394 -768
-716 -30 -62 -70 -159 -88 -215 -18 -57 -40 -107 -47 -111 -7 -3 -60 -21 -118
-38 -284 -86 -511 -252 -643 -474 -52 -87 -103 -221 -118 -313 -12 -70 -14
-73 -41 -73 l-28 0 0 -95 0 -95 30 0 c26 0 30 -4 30 -27 0 -43 47 -207 81
-286 93 -212 244 -386 429 -496 65 -39 187 -91 243 -105 l27 -6 0 99 0 98 -70
23 c-227 73 -411 280 -485 545 -25 90 -31 329 -12 431 63 334 316 544 747 620
52 9 98 19 102 23 3 3 19 60 33 126 60 269 162 463 335 635 222 223 500 338
858 356 l127 7 44 49 c24 27 68 63 97 80 30 16 54 36 54 43 0 29 -259 43 -419
23z"/>
<path d="M4718 2786 c-10 -14 -40 -39 -68 -57 l-49 -32 38 -46 c142 -170 206
-360 218 -636 9 -238 -17 -394 -93 -553 -76 -158 -204 -276 -408 -373 l-106
-51 0 -99 0 -99 53 21 c83 32 222 105 289 151 83 55 220 188 274 264 25 34 65
105 90 158 46 98 104 299 104 362 0 31 3 34 30 34 l30 0 0 120 0 120 -28 0
c-28 0 -28 1 -40 86 -14 97 -58 240 -103 342 -34 76 -119 206 -176 269 l-38
43 -17 -24z"/>
<path d="M2824 2031 c-86 -21 -175 -110 -159 -161 21 -65 102 -117 239 -151
48 -12 98 -30 111 -41 23 -18 25 -26 25 -98 0 -103 -9 -110 -136 -110 -104 0
-133 14 -155 75 -13 36 -20 38 -72 26 l-29 -6 31 -42 c112 -155 421 -112 467
65 14 53 -29 118 -106 157 -26 13 -94 36 -151 50 -57 15 -110 31 -116 37 -8 6
-13 35 -13 74 0 87 9 94 121 94 102 0 121 -7 139 -50 9 -23 19 -30 39 -30 51
0 56 14 17 53 -55 56 -160 80 -252 58z"/>
<path d="M1280 1730 l0 -300 60 0 60 0 0 140 0 140 71 0 c39 0 79 -5 89 -10
10 -6 51 -69 90 -140 l71 -130 50 0 49 0 -31 63 c-39 77 -75 124 -100 132 -16
5 -19 16 -19 64 0 56 1 57 33 69 41 15 71 46 91 93 13 32 13 39 -4 75 -38 86
-95 103 -337 104 l-173 0 0 -300z m390 230 c16 -16 20 -33 20 -86 0 -36 -5
-74 -10 -84 -15 -28 -71 -40 -182 -40 l-98 0 0 115 0 115 125 0 c112 0 127 -2
145 -20z"/>
<path d="M2000 1730 l0 -300 245 0 245 0 0 35 0 35 -185 0 -185 0 0 110 0 110
165 0 165 0 0 25 0 25 -165 0 -165 0 0 100 0 100 180 0 180 0 0 30 0 30 -240
0 -240 0 0 -300z"/>
<path d="M3280 1990 l0 -40 110 0 110 0 0 -260 0 -260 60 0 60 0 0 260 0 260
110 0 110 0 0 40 0 40 -280 0 -280 0 0 -40z"/>
<path d="M1445 559 c-110 -293 -201 -538 -203 -545 -3 -11 21 -14 122 -14
l126 0 0 32 c0 17 12 71 27 120 l26 88 243 0 243 0 31 -99 c16 -54 30 -108 30
-120 0 -20 4 -21 129 -21 l129 0 -179 478 c-99 262 -191 507 -205 545 l-26 67
-146 0 -147 0 -200 -531z m421 224 c76 -251 84 -281 84 -335 l0 -58 -165 0
-165 0 0 48 c-1 29 21 119 57 239 l58 193 52 0 52 0 27 -87z"/>
<path d="M2540 546 l0 -546 130 0 130 0 0 235 0 235 128 0 c200 0 292 24 372
96 78 71 117 185 96 278 -25 106 -79 171 -182 218 -47 22 -61 23 -361 26
l-313 3 0 -545z m545 390 c54 -23 75 -67 75 -157 0 -63 -4 -82 -23 -110 -31
-47 -72 -58 -214 -58 l-123 -1 0 170 0 170 125 0 c87 0 136 -4 160 -14z"/>
<path d="M3640 545 l0 -545 130 0 130 0 0 545 0 545 -130 0 -130 0 0 -545z"/>
</g>
</svg>